<svg id="Contact" xmlns="http://www.w3.org/2000/svg" width="36" height="36" viewBox="0 0 36 36">
  <defs>
    <style>
      .cls-1 {
        fill: #232323;
      }

      .cls-2 {
        fill: #646464;
        fill-rule: evenodd;
      }
    </style>
  </defs>
  <circle class="cls-1" cx="18" cy="18" r="18"/>
  <path id="Forma_1" data-name="Forma 1" class="cls-2" d="M2749.19,1784.81a0.349,0.349,0,0,1-.22-0.08l-3.71-3.43a0.318,0.318,0,1,1,.44-0.46l3.71,3.42a0.318,0.318,0,0,1,.02.45A0.325,0.325,0,0,1,2749.19,1784.81Zm-12.38,0a0.31,0.31,0,0,1-.24-0.1,0.326,0.326,0,0,1,.01-0.45l3.72-3.42a0.318,0.318,0,0,1,.44.46l-3.71,3.43A0.372,0.372,0,0,1,2736.81,1784.81Zm14.58,3.19h-16.78a1.6,1.6,0,0,1-1.61-1.59v-10.82a1.6,1.6,0,0,1,1.61-1.59h16.78a1.6,1.6,0,0,1,1.61,1.59v10.82A1.6,1.6,0,0,1,2751.39,1788Zm-16.78-13.37a0.969,0.969,0,0,0-.97.96v10.82a0.969,0.969,0,0,0,.97.96h16.78a0.969,0.969,0,0,0,.97-0.96v-10.82a0.969,0.969,0,0,0-.97-0.96h-16.78Zm8.39,7.97a1.8,1.8,0,0,1-1.18-.42l-8.29-7.12a0.326,0.326,0,0,1-.03-0.45,0.339,0.339,0,0,1,.46-0.03l8.28,7.12a1.231,1.231,0,0,0,1.52,0l8.27-7.11a0.34,0.34,0,0,1,.46.03,0.317,0.317,0,0,1-.04.45l-8.27,7.1A1.753,1.753,0,0,1,2743,1782.6Z" transform="translate(-2725 -1763)"/>
</svg>
