<svg xmlns="http://www.w3.org/2000/svg" width="20" height="20" viewBox="0 0 20 20">
  <defs>
    <style>
      .cls-1 {
        fill: #fff;
        fill-rule: evenodd;
      }
    </style>
  </defs>
  <path id="Forma_1" data-name="Forma 1" class="cls-1" d="M956.458,417.6v-8.993h-13.8v16.778h6.349a0.806,0.806,0,1,1,0,1.611h-7.177A0.819,0.819,0,0,1,941,426.2v-18.39a0.819,0.819,0,0,1,.828-0.805h15.458a0.819,0.819,0,0,1,.828.805v9.8A0.828,0.828,0,0,1,956.458,417.6Zm4.265,1.96a0.845,0.845,0,0,0-1.173.067l-4.541,4.913-2.277-2.135a0.848,0.848,0,0,0-1.174.027,0.791,0.791,0,0,0,.028,1.141l2.9,2.712a0.829,0.829,0,0,0,.58.228h0.028a0.841,0.841,0,0,0,.579-0.269l5.107-5.53A0.8,0.8,0,0,0,960.723,419.564Zm-7.3-7.866h-7.453a0.806,0.806,0,1,0,0,1.611h7.453A0.806,0.806,0,1,0,953.422,411.7Zm0.828,5.235a0.82,0.82,0,0,0-.828-0.806h-7.453a0.806,0.806,0,1,0,0,1.611h7.453A0.819,0.819,0,0,0,954.25,416.933Zm-8.281,3.49a0.805,0.805,0,1,0,0,1.61h2.208a0.805,0.805,0,1,0,0-1.61h-2.208Z" transform="translate(-941 -407)"/>
</svg>
