<svg id="Share" xmlns="http://www.w3.org/2000/svg" width="36" height="36" viewBox="0 0 36 36">
  <defs>
    <style>
      .cls-1 {
        fill: #232323;
      }

      .cls-2 {
        fill: #646464;
        fill-rule: evenodd;
      }
    </style>
  </defs>
  <circle class="cls-1" cx="18" cy="18" r="18"/>
  <path id="Forma_1" data-name="Forma 1" class="cls-2" d="M2812.41,785.5a2.935,2.935,0,0,0-.44.55l-5.66-3.378a3.068,3.068,0,0,0,0-2.379l5.66-3.352a3.2,3.2,0,1,0-.52-1.725,3.135,3.135,0,0,0,.22,1.148l-5.66,3.357a3.288,3.288,0,0,0-2.74-1.459,3.221,3.221,0,1,0,0,6.441,3.288,3.288,0,0,0,2.74-1.459l5.66,3.383a3.16,3.16,0,0,0,.74,3.427,3.316,3.316,0,0,0,4.63,0,3.18,3.18,0,0,0,0-4.554A3.316,3.316,0,0,0,2812.41,785.5Zm2.32-12.86a2.577,2.577,0,1,1-2.62,2.576A2.6,2.6,0,0,1,2814.73,772.644Zm-11.46,11.419a2.577,2.577,0,1,1,2.62-2.577A2.6,2.6,0,0,1,2803.27,784.063Zm13.31,5.54a2.649,2.649,0,0,1-3.7,0,2.541,2.541,0,0,1,0-3.644,2.649,2.649,0,0,1,3.7,0A2.541,2.541,0,0,1,2816.58,789.6Z" transform="translate(-2792 -763)"/>
</svg>
