<svg width="44" height="29" viewBox="0 0 44 29" fill="none" xmlns="http://www.w3.org/2000/svg"><path d="M0 0h43.563v29H0z"/><path d="M0 0h43.563v29H0z"/><path d="M0 0h43.563v29H0z"/><path d="M0 0h43.563v29H0z"/><path d="M21.313 6.337h2.16c.28 0 .507.216.507.481V8.87c0 .266.227.482.508.482h2.485c.28 0 .507-.216.507-.482V6.82c0-.267.227-.482.507-.482h2.16c.28 0 .507-.216.507-.482v-2.36a.495.495 0 0 0-.507-.481h-2.16a.495.495 0 0 1-.507-.482V.482A.495.495 0 0 0 26.973 0h-2.485a.495.495 0 0 0-.508.482v2.05a.495.495 0 0 1-.507.482h-2.16a.495.495 0 0 0-.507.481v2.36c0 .266.227.482.507.482zm21.269 6.833H16.129c1.123-2.188-.567-4.75-3.132-4.75-4.186 0-4.506-.093-5.426.333V7.516c0-.514-.438-.93-.98-.93H.981c-.542 0-.981.416-.981.93V28.07c0 .514.439.931.98.931h5.611c.542 0 .98-.417.98-.93v-2.273h28.42v2.272c0 .514.438.931.98.931h5.611c.542 0 .98-.417.98-.93V14.1c0-.514-.439-.93-.98-.93zM5.61 27.138H1.96V8.448h3.65v18.69zm13.822-12.106H35.99v5.586H19.433v-5.586zm-10.34-4.75h3.905c.838 0 1.52.648 1.52 1.444 0 .796-.682 1.444-1.52 1.444H9.093c-.839 0-1.521-.648-1.521-1.444 0-.796.682-1.444 1.52-1.444zm-1.521 4.75h9.9v5.586h-9.9v-5.586zm28.419 8.903H7.57V22.48h28.42v1.455zm5.61 3.203h-3.65V15.032h3.65v12.106z" fill="#ED222B"/></svg>