<svg width="20" height="21" viewBox="0 0 20 21" fill="none" xmlns="http://www.w3.org/2000/svg"><path d="M0 0h20v21H0z"/><path d="M17.074 13.457h.805v.82h-.805z"/><path d="M17.074 13.457h.805v.82h-.805z"/><path d="M17.476 14.277a.407.407 0 0 0 .403-.41c0-.226-.18-.41-.403-.41a.407.407 0 0 0-.402.41c0 .227.18.41.402.41z" fill="#ED222B"/><path d="M1.742 13.457h.805v.82h-.805z"/><path d="M1.742 13.457h.805v.82h-.805z"/><path d="M2.145 14.277a.407.407 0 0 0 .403-.41c0-.226-.18-.41-.403-.41a.406.406 0 0 0-.403.41c0 .227.18.41.403.41z" fill="#ED222B"/><path d="M0 0h20v21H0z"/><path d="M0 0h20v21H0z"/><path d="M19.597 20.18H16.14l-.022-10.081c0-.226-.18-.41-.402-.41h-.001a.407.407 0 0 0-.402.412l.021 10.079h-1.17l-.01-4.486a.406.406 0 0 0-.403-.409h-.001a.407.407 0 0 0-.402.412l.01 4.483h-.978v-5.43a2.234 2.234 0 0 0 2.037-2.215V8.56a4.52 4.52 0 0 0-.384-1.824 3.306 3.306 0 0 1 2.106.944 3.21 3.21 0 0 1 .97 2.295l.007 2.335c0 .226.18.409.402.409h.002a.407.407 0 0 0 .401-.412l-.007-2.334a4.029 4.029 0 0 0-1.215-2.883 4.103 4.103 0 0 0-1.555-.962c.41-.397.665-.956.663-1.576-.002-1.195-.958-2.166-2.13-2.166h-.005c-.342 0-.682.086-.983.247a.414.414 0 0 0-.17.553.4.4 0 0 0 .544.174c.19-.101.395-.153.61-.153a1.34 1.34 0 0 1 1.329 1.347 1.34 1.34 0 0 1-1.323 1.353.393.393 0 0 0-.05.004l-.065.002a4.587 4.587 0 0 0-2.33-1.698 2.42 2.42 0 0 0 .807-1.808C12.04 1.08 10.98 0 9.677 0S7.314 1.08 7.314 2.407c0 .755.344 1.43.88 1.871a4.588 4.588 0 0 0-2.147 1.633 4.193 4.193 0 0 0-.28-.003l-.023-.002a1.34 1.34 0 0 1-1.325-1.35c0-.744.594-1.35 1.325-1.35.221 0 .44.057.632.163a.4.4 0 0 0 .547-.164.414.414 0 0 0-.162-.557 2.104 2.104 0 0 0-1.017-.262c-1.175 0-2.131.974-2.131 2.17 0 .652.284 1.237.732 1.635-1.523.598-2.603 2.072-2.603 3.791v2.327c0 .226.18.41.403.41a.407.407 0 0 0 .403-.41V9.982c0-1.701 1.334-3.1 3.026-3.242a4.523 4.523 0 0 0-.382 1.82v3.975c0 1.182.933 2.15 2.105 2.22v5.425H6.199v-4.485c0-.226-.18-.41-.402-.41a.407.407 0 0 0-.403.41v4.485h-.99V10.104c0-.227-.18-.41-.403-.41a.407.407 0 0 0-.403.41V20.18H.403a.407.407 0 0 0-.403.41c0 .226.18.41.403.41h19.194a.407.407 0 0 0 .403-.41c0-.227-.18-.41-.403-.41zM8.12 2.407c0-.875.7-1.587 1.558-1.587.859 0 1.557.712 1.557 1.587 0 .874-.698 1.586-1.557 1.586S8.119 3.28 8.119 2.407zm3.858 5.88a.407.407 0 0 0-.403.411V20.18H10.14v-5.708c0-.226-.18-.41-.403-.41a.407.407 0 0 0-.403.41v5.708h-1.23V8.698c0-.226-.18-.41-.403-.41a.407.407 0 0 0-.403.41v5.235c-.728-.067-1.299-.668-1.299-1.398V8.56a3.7 3.7 0 0 1 .586-1.999 3.805 3.805 0 0 1 3.22-1.748c1.316 0 2.52.655 3.223 1.753.382.596.583 1.286.583 1.994v3.975c0 .707-.536 1.293-1.23 1.39V8.698a.407.407 0 0 0-.403-.41z" fill="#ED222B"/></svg>