<svg width="37" height="42" viewBox="0 0 37 42" fill="none" xmlns="http://www.w3.org/2000/svg"><path d="M1 1h35.612v40H1z"/><path d="M1 1h35.612v40H1z"/><path d="M1 1h35.612v40H1z"/><path d="M6.127 8.704l.088.089-.088-.089A17.815 17.815 0 0 0 .875 21.387v.003a1.298 1.298 0 1 0 2.596 0c0-.533.31-1.037.831-1.414.52-.376 1.237-.615 2.02-.615.78 0 1.499.24 2.018.615.52.377.831.881.831 1.414a1.298 1.298 0 1 0 2.596 0c0-.533.311-1.037.831-1.414.52-.376 1.237-.615 2.02-.615.776 0 1.49.236 2.008.608s.831.87.84 1.397v.008l-.001.024v15.358c0 .977-.796 1.773-1.773 1.773a1.775 1.775 0 0 1-1.773-1.773 1.298 1.298 0 1 0-2.596 0c0 2.41 1.96 4.369 4.369 4.369s4.369-1.96 4.369-4.37V21.439l.002-.05c0-.532.311-1.036.831-1.413.52-.376 1.237-.615 2.02-.615.781 0 1.499.24 2.018.615.52.377.831.881.831 1.414a1.298 1.298 0 0 0 2.596 0c0-.533.311-1.037.831-1.414.52-.376 1.237-.615 2.02-.615.781 0 1.499.24 2.018.615.52.377.831.881.831 1.414a1.298 1.298 0 0 0 1.447 1.288 1.297 1.297 0 0 0 1.231-1.295c0-4.789-1.865-9.292-5.252-12.679l-.088.089.088-.089A17.798 17.798 0 0 0 20.104 3.5V2.173a1.298 1.298 0 1 0-2.596 0V3.5A17.799 17.799 0 0 0 6.127 8.704zm25.082 8.06c-1.657 0-3.146.633-4.148 1.633-1.001-1-2.49-1.632-4.148-1.632-1.657 0-3.146.632-4.148 1.632-1.001-1-2.49-1.632-4.148-1.632-1.657 0-3.146.632-4.148 1.632-1.001-1-2.49-1.632-4.148-1.632-.808 0-1.574.15-2.265.42 1.83-6.421 7.75-11.137 14.75-11.137 7.013 0 12.941 4.733 14.76 11.173a6.222 6.222 0 0 0-2.357-.456z" fill="#ED222B" stroke="#ED222B" stroke-width=".25"/></svg>