<svg width="20" height="19" viewBox="0 0 20 19" fill="none" xmlns="http://www.w3.org/2000/svg"><path d="M20 0H0v19h20z"/><path d="M10.033 10.663a5.347 5.347 0 0 1-5.353-5.34C4.68 2.375 7.077 0 10.033 0s5.353 2.391 5.353 5.323c0 2.932-2.397 5.34-5.353 5.34zm0-9.27c-2.168 0-3.941 1.768-3.941 3.93s1.773 3.931 3.94 3.931c2.168 0 3.942-1.769 3.942-3.93 0-2.163-1.774-3.932-3.941-3.932zM19.294 19H.706A.7.7 0 0 1 0 18.296c0-3.686 3.005-6.7 6.716-6.7h6.568c3.695 0 6.716 2.998 6.716 6.7a.7.7 0 0 1-.706.704zm-6.01-5.995H6.716a5.296 5.296 0 0 0-5.255 4.586H18.54a5.31 5.31 0 0 0-5.255-4.586z" fill="#ED222B"/></svg>