<svg xmlns="http://www.w3.org/2000/svg" width="10" height="13" viewBox="0 0 10 13">
  <defs>
    <style>
      .cls-1 {
        fill: #6e6969;
        fill-rule: evenodd;
      }
    </style>
  </defs>
  <path id="Forma_1_copy_3" data-name="Forma 1 copy 3" class="cls-1" d="M2581,3883a0.357,0.357,0,0,1-.27-0.12c-0.19-.2-4.73-5.11-4.73-7.82a5,5,0,1,1,10,0c0,2.71-4.54,7.62-4.73,7.82A0.357,0.357,0,0,1,2581,3883Zm0-12.26a4.3,4.3,0,0,0-4.27,4.32c0,1.88,2.87,5.46,4.27,7.02,1.4-1.56,4.26-5.14,4.26-7.02A4.3,4.3,0,0,0,2581,3870.74Zm0,5.91a2.145,2.145,0,1,1,2.11-2.14A2.132,2.132,0,0,1,2581,3876.65Zm0-3.54a1.4,1.4,0,1,0,1.38,1.4A1.387,1.387,0,0,0,2581,3873.11Z" transform="translate(-2576 -3870)"/>
</svg>
