<svg xmlns="http://www.w3.org/2000/svg" width="17" height="20" viewBox="0 0 17 20">
  <defs>
    <style>
      .cls-1 {
        fill: #352f2f;
        fill-rule: evenodd;
      }
    </style>
  </defs>
  <path id="Forma_1" data-name="Forma 1" class="cls-1" d="M1522.2,1492.63a4.493,4.493,0,0,1,2.25-3.81,4.917,4.917,0,0,0-3.82-1.98c-1.62-.16-3.17.91-3.99,0.91s-2.1-.89-3.45-0.87a5.172,5.172,0,0,0-4.32,2.51c-1.84,3.06-.47,7.59,1.33,10.08,0.87,1.21,1.92,2.58,3.29,2.53,1.32-.05,1.82-0.82,3.42-0.82s2.05,0.82,3.45.79c1.42-.02,2.32-1.24,3.19-2.45a11,11,0,0,0,1.45-2.85A4.447,4.447,0,0,1,1522.2,1492.63Zm-2.63-7.44a4.288,4.288,0,0,0,1.09-3.19,4.77,4.77,0,0,0-3.08,1.51,4.114,4.114,0,0,0-1.11,3.1A3.929,3.929,0,0,0,1519.57,1485.19Z" transform="translate(-1508 -1482)"/>
</svg>
