<svg xmlns="http://www.w3.org/2000/svg" width="21" height="22" viewBox="0 0 21 22">
  <defs>
    <style>
      .cls-1 {
        fill: #6e6e73;
        fill-rule: evenodd;
      }
    </style>
  </defs>
  <path id="Forma_1" data-name="Forma 1" class="cls-1" d="M234.114,646.331a0.347,0.347,0,0,0,.343.351h12.086a0.351,0.351,0,0,0,0-.7H234.457A0.347,0.347,0,0,0,234.114,646.331Zm0.343-2.787h0.81a1.359,1.359,0,0,1,1.306,1.031h-2.116a0.352,0.352,0,0,0,0,.7h2.5a0.347,0.347,0,0,0,.342-0.351,2.063,2.063,0,0,0-2.035-2.085h-0.81A0.351,0.351,0,0,0,234.457,643.544Zm9.583,1.734h2.5a0.352,0.352,0,0,0,0-.7h-2.116a1.359,1.359,0,0,1,1.306-1.031h0.81a0.351,0.351,0,0,0,0-.7h-0.81a2.063,2.063,0,0,0-2.036,2.085A0.348,0.348,0,0,0,244.04,645.278ZM249.286,629H231.714a0.347,0.347,0,0,0-.343.351v15.576a0.348,0.348,0,0,0,.343.351h1.029V648.2a0.346,0.346,0,0,0,.342.351H233.2v2.1a0.346,0.346,0,0,0,.342.351h2.934a0.347,0.347,0,0,0,.343-0.351v-1.042a0.343,0.343,0,1,0-.685,0V650.3h-2.249v-1.744h13.153V650.3H244.79v-0.691a0.343,0.343,0,1,0-.686,0v1.042a0.347,0.347,0,0,0,.343.351h2.934a0.347,0.347,0,0,0,.343-0.351v-2.1h0.191a0.346,0.346,0,0,0,.342-0.351v-2.925h1.029a0.348,0.348,0,0,0,.343-0.351V629.351A0.347,0.347,0,0,0,249.286,629Zm-14.829,10.889a0.351,0.351,0,0,0,0,.7h12.086a0.351,0.351,0,0,0,0-.7h-5.7V634.5h5.472a1.274,1.274,0,0,1,1.257,1.287v12.065H233.428V635.787a1.274,1.274,0,0,1,1.257-1.287h5.472v5.389h-5.7Zm14.486,4.686h-0.686v-8.788a1.968,1.968,0,0,0-1.942-1.989h-11.63a1.968,1.968,0,0,0-1.942,1.989v8.788h-0.686V629.7h16.886v14.873h0Zm1.714-6.827a0.347,0.347,0,0,0-.343.351v2.141a0.343,0.343,0,1,0,.686,0V638.1A0.347,0.347,0,0,0,250.657,637.748Zm-20.314,0a0.347,0.347,0,0,0-.343.351v2.141a0.343,0.343,0,1,0,.686,0V638.1A0.347,0.347,0,0,0,230.343,637.748Z" transform="translate(-230 -629)"/>
</svg>
