<svg xmlns="http://www.w3.org/2000/svg" width="21" height="20" viewBox="0 0 21 20">
  <defs>
    <style>
      .cls-1 {
        fill: #6e6e73;
        fill-rule: evenodd;
      }
    </style>
  </defs>
  <path id="Forma_1" data-name="Forma 1" class="cls-1" d="M238.234,389a0.376,0.376,0,0,1-.37-0.439l1.162-6.771L234.1,377a0.375,0.375,0,0,1,.208-0.64l6.8-.988,3.042-6.161a0.376,0.376,0,0,1,.337-0.209h0a0.376,0.376,0,0,1,.337.209l3.042,6.161,6.8,0.988a0.375,0.375,0,0,1,.208.64l-4.922,4.8,1.162,6.77a0.377,0.377,0,0,1-.15.368,0.373,0.373,0,0,1-.4.028l-6.084-3.2-6.085,3.2A0.374,0.374,0,0,1,238.234,389Zm-3.06-12.012,4.519,4.4a0.377,0.377,0,0,1,.108.333l-1.067,6.214L244.319,385a0.374,0.374,0,0,1,.35,0l5.585,2.934-1.066-6.214a0.377,0.377,0,0,1,.107-0.333l4.519-4.4-6.244-.906a0.376,0.376,0,0,1-.283-0.206l-2.793-5.654-2.793,5.654a0.376,0.376,0,0,1-.283.206Z" transform="translate(-234 -369)"/>
</svg>
