<svg xmlns="http://www.w3.org/2000/svg" width="19" height="20" viewBox="0 0 19 20">
  <defs>
    <style>
      .cls-1 {
        fill: #1a1717;
        fill-rule: evenodd;
      }
    </style>
  </defs>
  <path class="cls-1" d="M778.07,29.748V20.562a0.55,0.55,0,1,0-1.1,0v9.186a2.868,2.868,0,0,0,0,5.6v4.089a0.55,0.55,0,1,0,1.1,0V35.345A2.868,2.868,0,0,0,778.07,29.748Zm-0.55,4.526a1.728,1.728,0,1,1,1.69-1.728A1.711,1.711,0,0,1,777.52,34.274Zm-6.181-9.24V20.562a0.55,0.55,0,1,0-1.1,0v4.472a2.868,2.868,0,0,0,0,5.6v8.8a0.55,0.55,0,1,0,1.1,0V30.627A2.865,2.865,0,0,0,771.339,25.034Zm-0.55,4.526a1.729,1.729,0,1,1,1.69-1.728A1.711,1.711,0,0,1,770.789,29.561Zm13.971-4.526V20.562a0.55,0.55,0,1,0-1.1,0v4.472a2.868,2.868,0,0,0,0,5.6v8.807a0.55,0.55,0,1,0,1.1,0V30.627A2.865,2.865,0,0,0,784.76,25.034Zm-0.549,4.526a1.729,1.729,0,1,1,1.689-1.728A1.71,1.71,0,0,1,784.211,29.561Z" transform="translate(-768 -20)"/>
</svg>
