<svg xmlns="http://www.w3.org/2000/svg" width="20" height="15" viewBox="0 0 20 15">
  <defs>
    <style>
      .cls-1 {
        fill: #6e6e73;
        fill-rule: evenodd;
      }
    </style>
  </defs>
  <path class="cls-1" d="M43.553,2416H24.384a0.358,0.358,0,0,1-.384-0.35v-6.01a0.2,0.2,0,0,1,0-.02,0.243,0.243,0,0,1,.015-0.07,0.487,0.487,0,0,1,.024-0.08,0.048,0.048,0,0,0,.007-0.02l4.817-8.26A0.379,0.379,0,0,1,29.2,2401h9.535a0.382,0.382,0,0,1,.334.19l4.82,8.26a0.037,0.037,0,0,0,.011.02,0.606,0.606,0,0,1,.032.08,0.23,0.23,0,0,1,.031.07c0,0.01.036,0.01,0.036,0.02v6.01A0.417,0.417,0,0,1,43.553,2416Zm-5.04-14.19h-9.09l-4.38,7.43h5.043a0.427,0.427,0,0,1,.367.3l0.748,2.41h5.535l0.748-2.41a0.426,0.426,0,0,1,.366-0.3h5.043Zm4.659,8.24h-5.04l-0.748,2.34a0.351,0.351,0,0,1-.366.23h-6.1a0.351,0.351,0,0,1-.366-0.23l-0.748-2.34H24.827v5.27H43.172v-5.27Zm-8.933.63a0.389,0.389,0,0,1-.542,0l-2.719-2.65a0.368,0.368,0,0,1-.008-0.53,0.362,0.362,0,0,1,.525,0l2.023,2.01v-6.62h0.828v6.62l2.06-2.01a0.388,0.388,0,0,1,.546,0,0.37,0.37,0,0,1,0,.53Z" transform="translate(-24 -2401)"/>
</svg>
