<svg xmlns="http://www.w3.org/2000/svg" width="20" height="20" viewBox="0 0 20 20">
  <defs>
    <style>
      .cls-1 {
        fill: #a9a9a9;
        fill-rule: evenodd;
      }
    </style>
  </defs>
  <path id="Forma_1" data-name="Forma 1" class="cls-1" d="M3141,1156.22v-6.45a0.309,0.309,0,0,0-.23-0.3l-2.98-.89a4.4,4.4,0,0,0,.37-1.64,3.935,3.935,0,1,0-7.87,0,4.238,4.238,0,0,0,.38,1.64l-2.9.86-6.36-1.89a0.31,0.31,0,0,0-.28.05,0.332,0.332,0,0,0-.13.26v12.91a0.309,0.309,0,0,0,.23.3l6.45,1.91v0.01h0a0.048,0.048,0,0,1,.04.01h0.1a0.076,0.076,0,0,1,.04-0.01h0.01c0-.01,6.23-1.85,6.23-1.85a0.507,0.507,0,0,0,.13.02,0.585,0.585,0,0,0,.13-0.02l6.23,1.85a0.277,0.277,0,0,0,.09.01,0.308,0.308,0,0,0,.19-0.06,0.332,0.332,0,0,0,.13-0.26v-6.46h0Zm-0.64-6.21v5.79l-5.81-1.73v-0.9a18.65,18.65,0,0,0,2.97-4Zm-6.13-6.37a3.3,3.3,0,0,1,3.29,3.3,4.2,4.2,0,0,1-.44,1.68,0.488,0.488,0,0,0-.03.07,17.534,17.534,0,0,1-2.82,3.88,16.914,16.914,0,0,1-2.82-3.88c-0.01-.03-0.03-0.05-0.04-0.08a4.118,4.118,0,0,1-.44-1.67A3.3,3.3,0,0,1,3134.23,1143.64Zm-0.32,9.53v0.9l-5.82,1.73v-5.79l2.84-.84A18.6,18.6,0,0,0,3133.91,1153.17Zm-12.27,1.57,2.2,0.65a0.292,0.292,0,0,0,.09.02,0.321,0.321,0,0,0,.09-0.63l-2.38-.71v-5.78l5.81,1.72v5.79l-2.2-.66a0.323,0.323,0,1,0-.18.62l2.38,0.71v5.78l-5.81-1.72v-5.79Zm12.91,5.79v-2.31a0.322,0.322,0,0,0-.32-0.32,0.316,0.316,0,0,0-.32.32v2.31l-5.82,1.72v-5.78l5.82-1.73v2.2a0.316,0.316,0,0,0,.32.32,0.322,0.322,0,0,0,.32-0.32v-2.2l5.81,1.73v5.78Zm-0.32-11.36a2.235,2.235,0,1,0-2.24-2.23A2.232,2.232,0,0,0,3134.23,1149.17Zm0-3.83a1.6,1.6,0,1,1-1.6,1.6A1.6,1.6,0,0,1,3134.23,1145.34Z" transform="translate(-3121 -1143)"/>
</svg>
