<svg xmlns="http://www.w3.org/2000/svg" width="13" height="13" viewBox="0 0 13 13">
  <defs>
    <style>
      .cls-1 {
        fill: #352f2f;
        fill-rule: evenodd;
      }
    </style>
  </defs>
  <path id="Закладки" class="cls-1" d="M3117.94,936.866a1.236,1.236,0,0,0-1.09-.894l-3.05-.236-1.14-2.937a1.234,1.234,0,0,0-1.15-.8,1.25,1.25,0,0,0-1.16.8l-1.14,2.937-3.06.238a1.278,1.278,0,0,0-1.09.916,1.3,1.3,0,0,0,.39,1.367l2.32,2.053-0.72,3.08a1.314,1.314,0,0,0,.22,1.105,1.224,1.224,0,0,0,.98.507h0a1.209,1.209,0,0,0,.66-0.2l2.59-1.668,2.6,1.668a1.169,1.169,0,0,0,.64.194,1.262,1.262,0,0,0,.99-0.5,1.336,1.336,0,0,0,.23-1.1l-0.72-3.087,2.32-2.051A1.317,1.317,0,0,0,3117.94,936.866Zm-1.07.545-2.82,2.5,0.88,3.746a0.22,0.22,0,0,1-.04.154,0.165,0.165,0,0,1-.23.051l-3.16-2.028-3.15,2.031a0.179,0.179,0,0,1-.1.032,0.174,0.174,0,0,1-.14-0.077,0.2,0.2,0,0,1-.03-0.156l0.88-3.753-2.83-2.5a0.168,0.168,0,0,1-.05-0.191,0.174,0.174,0,0,1,.16-0.14l3.7-.287,1.39-3.563a0.191,0.191,0,0,1,.18-0.12,0.16,0.16,0,0,1,.16.109l1.4,3.574,3.7,0.288a0.175,0.175,0,0,1,.16.129A0.182,0.182,0,0,1,3116.87,937.411Z" transform="translate(-3105 -932)"/>
</svg>
