<svg xmlns="http://www.w3.org/2000/svg" width="30" height="30" viewBox="0 0 30 30">
  <defs>
    <style>
      .cls-1 {
        fill: #fedb60;
        fill-rule: evenodd;
      }
    </style>
  </defs>
  <path id="Forma_1" data-name="Forma 1" class="cls-1" d="M1812.12,1709.97a14.991,14.991,0,1,0-28.24,10.07,0.617,0.617,0,0,0,.78.37,0.625,0.625,0,0,0,.37-0.78,13.763,13.763,0,1,1,5.9,7.19,0.61,0.61,0,0,0-.62,1.05A14.991,14.991,0,0,0,1812.12,1709.97Zm-7.41,5.03a0.606,0.606,0,0,0-.61-0.61h-15.2a0.61,0.61,0,1,0,0,1.22h15.2A0.606,0.606,0,0,0,1804.71,1715Zm-4.86,6.38a0.616,0.616,0,0,0,0,.87,0.6,0.6,0,0,0,.86,0l6.81-6.82a0.6,0.6,0,0,0,0-.86l-6.81-6.81a0.608,0.608,0,0,0-.86.86l6.38,6.38Z" transform="translate(-1783 -1700)"/>
</svg>
