<svg xmlns="http://www.w3.org/2000/svg" width="16" height="20" viewBox="0 0 16 20">
  <defs>
    <style>
      .cls-1 {
        fill: #6e6e73;
        fill-rule: evenodd;
      }
    </style>
  </defs>
  <path id="Forma_1" data-name="Forma 1" class="cls-1" d="M244,351a0.6,0.6,0,0,1-.427-0.178c-0.309-.32-7.573-7.866-7.573-12.031a8,8,0,0,1,16,0c0,4.166-7.263,11.711-7.573,12.031A0.6,0.6,0,0,1,244,351Zm0-18.858a6.747,6.747,0,0,0-6.826,6.648c0,2.884,4.584,8.394,6.826,10.8,2.242-2.4,6.826-7.912,6.826-10.8A6.747,6.747,0,0,0,244,332.142Zm0,9.087a3.3,3.3,0,1,1,3.383-3.3A3.344,3.344,0,0,1,244,341.229Zm0-5.448a2.153,2.153,0,1,0,2.21,2.152A2.184,2.184,0,0,0,244,335.781Z" transform="translate(-236 -331)"/>
</svg>
