<svg id="Группа_1" data-name="Группа 1" xmlns="http://www.w3.org/2000/svg" width="70.03" height="89.031" viewBox="0 0 70.03 89.031">
  <defs>
    <style>
      .cls-1 {
        fill: #fff;
      }

      .cls-2 {
        fill-rule: evenodd;
      }
    </style>
  </defs>
  <circle class="cls-1" cx="34.03" cy="37" r="19"/>
  <path id="Shape_1_copy_2" data-name="Shape 1 copy 2" class="cls-2" d="M1126.75,263.987a35.327,35.327,0,0,0-33.58,32.038,36.386,36.386,0,0,0,.46,10.205h0s0.06,0.383.24,1.113a35.85,35.85,0,0,0,2.36,7.047c3.5,8.433,11.62,22.545,29.82,37.9a3.011,3.011,0,0,0,3.89,0c18.2-15.334,26.31-29.445,29.84-37.916a34.19,34.19,0,0,0,2.36-7.046c0.16-.712.23-1.114,0.23-1.114h0a36.536,36.536,0,0,0,.63-6.736C1163,279.431,1146.65,263.275,1126.75,263.987Zm1.24,53.159a17.253,17.253,0,1,1,17-17.251A17.125,17.125,0,0,1,1127.99,317.146Z" transform="translate(-1092.97 -264)"/>
</svg>
