<svg xmlns="http://www.w3.org/2000/svg" width="38" height="48" viewBox="0 0 38 48">
  <defs>
    <style>
      .cls-1 {
        fill-rule: evenodd;
      }
    </style>
  </defs>
  <path id="Shape_1_copy_5" data-name="Shape 1 copy 5" class="cls-1" d="M1064.32,448.993a19.128,19.128,0,0,0-18.23,17.279,19.7,19.7,0,0,0,.25,5.5h0s0.03,0.207.13,0.6a18.92,18.92,0,0,0,1.28,3.8c1.9,4.549,6.31,12.16,16.19,20.44a1.641,1.641,0,0,0,2.11,0c9.88-8.271,14.29-15.881,16.2-20.449a18.145,18.145,0,0,0,1.28-3.8c0.09-.384.13-0.6,0.13-0.6h0a19.814,19.814,0,0,0,.34-3.633A19.066,19.066,0,0,0,1064.32,448.993Zm0.68,28.67a9.3,9.3,0,1,1,9.22-9.3A9.265,9.265,0,0,1,1065,477.663Z" transform="translate(-1046 -449)"/>
</svg>
