<svg xmlns="http://www.w3.org/2000/svg" width="17" height="16" viewBox="0 0 17 16">
  <defs>
    <style>
      .cls-1 {
        fill: #db9316;
        fill-rule: evenodd;
      }
    </style>
  </defs>
  <path id="Forma_1" data-name="Forma 1" class="cls-1" d="M3139.89,3871.69l-2.66-2.59a0.388,0.388,0,0,0-.52,0l-0.51.49-0.16-.15a0.372,0.372,0,0,0-.51-0.01l-10.24,9.43a0.325,0.325,0,0,0-.1.18l-0.66,3.23-1.47,2.18a0.358,0.358,0,0,0-.02.36,0.374,0.374,0,0,0,.33.19h7.83a0.355,0.355,0,1,0,0-.71h-5.12l0.29-.28,3.28-.63a0.435,0.435,0,0,0,.19-0.1l9.72-9.94a0.359,0.359,0,0,0-.01-0.5l-0.16-.16,0.5-.48A0.345,0.345,0,0,0,3139.89,3871.69Zm-15.84,12.6,0.89-1.32,0.73,0.71-0.63.61h-0.99Zm5.35-1.59-3.09.59-1.03-1,0.61-3,0.42-.41,3.51,3.41Zm0.93-.92-3.49-3.4,0.79-.73,3.45,3.35Zm1.26-1.3-3.42-3.32,6.43-5.9,3.07,2.98Zm6.59-6.76-3.04-2.95,0.64-.58,2.99,2.91Zm0.69-1.54-2.15-2.08,0.25-.24,2.14,2.08Z" transform="translate(-3123 -3869)"/>
</svg>
