<svg id="App_Store" data-name="App Store" xmlns="http://www.w3.org/2000/svg" width="97" height="24.78" viewBox="0 0 97 24.78">
  <defs>
    <style>
      .cls-1 {
        fill: #352f2f;
      }

      .cls-1, .cls-2 {
        fill-rule: evenodd;
      }

      .cls-2 {
        fill: #938247;
      }
    </style>
  </defs>
  <path id="Forma_1" data-name="Forma 1" class="cls-1" d="M3128.2,1681.63a4.493,4.493,0,0,1,2.25-3.81,4.917,4.917,0,0,0-3.82-1.98c-1.62-.16-3.17.91-3.99,0.91s-2.1-.89-3.45-0.87a5.172,5.172,0,0,0-4.32,2.51c-1.84,3.06-.47,7.59,1.33,10.08,0.87,1.21,1.92,2.58,3.29,2.53,1.32-.05,1.82-0.82,3.42-0.82s2.05,0.82,3.45.79c1.42-.02,2.32-1.24,3.19-2.45a11,11,0,0,0,1.45-2.85A4.447,4.447,0,0,1,3128.2,1681.63Zm-2.63-7.44a4.288,4.288,0,0,0,1.09-3.19,4.77,4.77,0,0,0-3.08,1.51,4.114,4.114,0,0,0-1.11,3.1A3.929,3.929,0,0,0,3125.57,1674.19Z" transform="translate(-3114 -1669.31)"/>
  <path id="Скачайте_в" data-name="Скачайте в" class="cls-2" d="M3146.91,1676.09a5.564,5.564,0,0,0,.56-0.11,2.214,2.214,0,0,0,.41-0.13,0.869,0.869,0,0,0,.22-0.11l-0.22-.72a3.592,3.592,0,0,1-.59.22,3.193,3.193,0,0,1-1,.13,2.189,2.189,0,0,1-.92-0.18,1.72,1.72,0,0,1-.65-0.51,2.336,2.336,0,0,1-.39-0.79,3.532,3.532,0,0,1-.13-1.01,3.347,3.347,0,0,1,.15-1.04,2.382,2.382,0,0,1,.42-0.79,1.823,1.823,0,0,1,.68-0.49,2.112,2.112,0,0,1,.89-0.18,3.421,3.421,0,0,1,.46.04,3.83,3.83,0,0,1,.43.11c0.13,0.04.24,0.08,0.34,0.12s0.18,0.09.24,0.12l0.25-.72c-0.04-.02-0.1-0.06-0.2-0.11s-0.22-.09-0.37-0.14a4.307,4.307,0,0,0-.54-0.13,4.9,4.9,0,0,0-.7-0.05,2.945,2.945,0,0,0-1.15.22,2.634,2.634,0,0,0-.95.63,2.912,2.912,0,0,0-.64,1.02,3.749,3.749,0,0,0-.24,1.39,4.274,4.274,0,0,0,.21,1.39,2.87,2.87,0,0,0,.6,1.02,2.478,2.478,0,0,0,.93.63,3.286,3.286,0,0,0,1.2.21A5.177,5.177,0,0,0,3146.91,1676.09Zm4.53-3.15q0.285-.27.57-0.57c0.19-.19.37-0.38,0.55-0.56s0.33-.35.46-0.49h-0.97c-0.11.11-.24,0.26-0.4,0.43s-0.34.35-.53,0.54-0.37.37-.56,0.56-0.35.34-.49,0.48v-2.01h-0.84V1676h0.84v-2.21a4.483,4.483,0,0,1,.55.42,7.544,7.544,0,0,1,.59.55c0.19,0.2.38,0.4,0.55,0.61s0.33,0.43.47,0.63h0.99c-0.13-.21-0.28-0.44-0.46-0.68s-0.38-.48-0.58-0.71a8.048,8.048,0,0,0-.64-0.66,6.1,6.1,0,0,0-.6-0.5C3151.09,1673.3,3151.26,1673.13,3151.44,1672.94Zm3.6,2.28a0.665,0.665,0,0,1-.28-0.62,0.613,0.613,0,0,1,.11-0.4,1,1,0,0,1,.3-0.23,1.123,1.123,0,0,1,.38-0.11,2.906,2.906,0,0,1,.4-0.03,3.377,3.377,0,0,1,.49.03,1.033,1.033,0,0,1,.3.08v1.39a1.956,1.956,0,0,1-.39.05c-0.15.01-.33,0.02-0.52,0.02A1.515,1.515,0,0,1,3155.04,1675.22Zm-0.1-3.95a2.48,2.48,0,0,0-.54.14l0.09,0.69a3.1,3.1,0,0,1,.47-0.12,3.875,3.875,0,0,1,.72-0.06,1.166,1.166,0,0,1,.53.1,0.8,0.8,0,0,1,.32.25,0.846,0.846,0,0,1,.16.36,1.841,1.841,0,0,1,.05.41v0.23a1.05,1.05,0,0,1-.13-0.02,1.121,1.121,0,0,0-.21-0.04,2.024,2.024,0,0,0-.26-0.04,2.348,2.348,0,0,0-.26-0.01,3.163,3.163,0,0,0-.76.08,1.978,1.978,0,0,0-.63.25,1.138,1.138,0,0,0-.42.45,1.3,1.3,0,0,0-.16.67,1.6,1.6,0,0,0,.13.69,1.222,1.222,0,0,0,.38.46,1.711,1.711,0,0,0,.58.26,3.263,3.263,0,0,0,.73.08c0.18,0,.37-0.01.56-0.02s0.36-.04.53-0.05,0.3-.04.43-0.06,0.23-.04.3-0.05v-2.93a2.73,2.73,0,0,0-.09-0.72,1.419,1.419,0,0,0-.3-0.57,1.37,1.37,0,0,0-.55-0.37,2.684,2.684,0,0,0-.86-0.13A5.091,5.091,0,0,0,3154.94,1671.27Zm3.87,0.05v1.39a1.892,1.892,0,0,0,.14.77,1.1,1.1,0,0,0,.36.5,1.253,1.253,0,0,0,.54.27,2.654,2.654,0,0,0,.71.09c0.1,0,.21-0.01.32-0.02s0.21-.03.31-0.04,0.18-.03.26-0.05,0.14-.04.19-0.05V1676h0.84v-4.68h-0.84v2.21c-0.12.03-.26,0.06-0.41,0.09a4.448,4.448,0,0,1-.57.03,1.183,1.183,0,0,1-.74-0.21,0.89,0.89,0,0,1-.27-0.74v-1.38h-0.84Zm6.09,3.9a0.671,0.671,0,0,1-.29-0.62,0.616,0.616,0,0,1,.12-0.4,0.953,0.953,0,0,1,.29-0.23,1.254,1.254,0,0,1,.39-0.11,2.8,2.8,0,0,1,.4-0.03,3.475,3.475,0,0,1,.49.03,1.045,1.045,0,0,1,.29.08v1.39a1.848,1.848,0,0,1-.38.05c-0.15.01-.33,0.02-0.53,0.02A1.453,1.453,0,0,1,3164.9,1675.22Zm-0.11-3.95a2.861,2.861,0,0,0-.54.14l0.1,0.69a2.92,2.92,0,0,1,.46-0.12,3.912,3.912,0,0,1,.73-0.06,1.121,1.121,0,0,1,.52.1,0.68,0.68,0,0,1,.32.25,0.859,0.859,0,0,1,.17.36,1.84,1.84,0,0,1,.04.41v0.23c-0.02,0-.07-0.01-0.13-0.02a1.121,1.121,0,0,0-.21-0.04,1.866,1.866,0,0,0-.25-0.04,2.348,2.348,0,0,0-.26-0.01,3.109,3.109,0,0,0-.76.08,1.978,1.978,0,0,0-.63.25,1.239,1.239,0,0,0-.43.45,1.411,1.411,0,0,0-.16.67,1.6,1.6,0,0,0,.14.69,1.222,1.222,0,0,0,.38.46,1.659,1.659,0,0,0,.57.26,3.4,3.4,0,0,0,.73.08c0.19,0,.38-0.01.57-0.02s0.36-.04.52-0.05,0.31-.04.44-0.06,0.23-.04.3-0.05v-2.93a2.73,2.73,0,0,0-.09-0.72,1.323,1.323,0,0,0-.86-0.94,2.575,2.575,0,0,0-.85-0.13A5.222,5.222,0,0,0,3164.79,1671.27Zm7.38,0.05c-0.19.2-.39,0.45-0.6,0.72s-0.42.57-.64,0.88-0.42.61-.61,0.92-0.38.59-.53,0.85v-3.37h-0.81V1676h0.74c0.15-.25.32-0.53,0.52-0.85s0.4-.64.62-0.96,0.43-.65.64-0.95,0.42-.58.6-0.8V1676h0.81v-4.68h-0.74Zm-0.31-1.04a1.22,1.22,0,0,0,.43-0.8l-0.63-.18a0.967,0.967,0,0,1-.25.47,0.6,0.6,0,0,1-.46.18,0.61,0.61,0,0,1-.47-0.18,0.881,0.881,0,0,1-.24-0.47l-0.64.18a1.209,1.209,0,0,0,.42.8,1.451,1.451,0,0,0,.93.28A1.393,1.393,0,0,0,3171.86,1670.28Zm2.09,1.04v0.7h1.52V1676h0.84v-3.98h1.52v-0.7h-3.88Zm4.8,3.33a2.321,2.321,0,0,0,.43.77,2.019,2.019,0,0,0,.73.5,2.642,2.642,0,0,0,1.06.19,3.753,3.753,0,0,0,.87-0.09,2.9,2.9,0,0,0,.54-0.17l-0.12-.7a3.338,3.338,0,0,1-.46.14,3.039,3.039,0,0,1-.74.08,1.561,1.561,0,0,1-1.15-.38,1.657,1.657,0,0,1-.42-1.11h3.2a0.708,0.708,0,0,0,.01-0.15v-0.14a2.761,2.761,0,0,0-.5-1.8,1.819,1.819,0,0,0-1.45-.59,1.958,1.958,0,0,0-.79.16,1.86,1.86,0,0,0-.69.46,2.245,2.245,0,0,0-.48.76,3.037,3.037,0,0,0-.18,1.09A3.412,3.412,0,0,0,3178.75,1674.65Zm0.76-1.44a1.667,1.667,0,0,1,.11-0.48,1.136,1.136,0,0,1,.24-0.41,1.155,1.155,0,0,1,.88-0.41,0.974,0.974,0,0,1,.8.37,1.4,1.4,0,0,1,.29.93h-2.32Zm7.65,0.65h1a3.636,3.636,0,0,1,.48.03,1.417,1.417,0,0,1,.38.13,0.642,0.642,0,0,1,.25.24,0.62,0.62,0,0,1,.1.37,0.686,0.686,0,0,1-.1.38,0.814,0.814,0,0,1-.28.24,1.294,1.294,0,0,1-.42.13,3.9,3.9,0,0,1-.5.04c-0.08,0-.17-0.01-0.26-0.01s-0.18-.01-0.27-0.01-0.16-.01-0.22-0.01-0.12-.01-0.16-0.02v-1.51Zm0-.62v-1.33c0.1,0,.22-0.01.36-0.01s0.28-.01.42-0.01a3.168,3.168,0,0,1,.44.02,1.235,1.235,0,0,1,.4.09,0.634,0.634,0,0,1,.28.19,0.491,0.491,0,0,1,.11.35,0.712,0.712,0,0,1-.08.34,0.611,0.611,0,0,1-.24.21,1.108,1.108,0,0,1-.35.12,2.945,2.945,0,0,1-.44.03h-0.9Zm1.72,2.77a1.934,1.934,0,0,0,.69-0.23,1.323,1.323,0,0,0,.46-0.45,1.381,1.381,0,0,0,.17-0.71,1.129,1.129,0,0,0-.23-0.74,1.42,1.42,0,0,0-.62-0.4,1.15,1.15,0,0,0,.46-0.38,0.994,0.994,0,0,0,.17-0.58,1.093,1.093,0,0,0-.17-0.64,1.181,1.181,0,0,0-.43-0.4,1.972,1.972,0,0,0-.62-0.21,3.514,3.514,0,0,0-.72-0.07,9.708,9.708,0,0,0-.98.05,5.393,5.393,0,0,0-.71.12v4.55a5.681,5.681,0,0,0,.71.11,9.708,9.708,0,0,0,.98.05A4.462,4.462,0,0,0,3188.88,1676.01Z" transform="translate(-3114 -1669.31)"/>
  <path id="App_Store-2" data-name="App Store" class="cls-1" d="M3152.45,1691.5c-0.36-1.05-.71-2.01-1.03-2.9s-0.65-1.72-.96-2.5-0.62-1.53-.93-2.24-0.62-1.39-.94-2.06h-2.09c-0.32.67-.64,1.36-0.94,2.06s-0.61,1.45-.93,2.24-0.63,1.62-.95,2.5-0.68,1.85-1.04,2.9h2.27c0.1-.34.22-0.68,0.34-1.04s0.25-.71.37-1.06h3.78c0.12,0.35.25,0.71,0.37,1.06s0.24,0.7.35,1.04h2.33Zm-4.73-6.93q0.15,0.36.33,0.84c0.13,0.32.26,0.67,0.4,1.05s0.28,0.78.43,1.2h-2.75c0.15-.42.29-0.82,0.44-1.2s0.27-.73.4-1.05,0.22-.6.32-0.84,0.16-.43.21-0.57C3147.55,1684.14,3147.63,1684.33,3147.72,1684.57Zm9.37,5.31a2.3,2.3,0,0,1-.64-0.09,1.507,1.507,0,0,1-.51-0.21v-3.76a2.9,2.9,0,0,1,.39-0.05,4.267,4.267,0,0,1,.52-0.02,1.5,1.5,0,0,1,1.29.58,2.49,2.49,0,0,1,.43,1.54c0,1.34-.49,2.01-1.48,2.01h0Zm3.35-3.66a3.259,3.259,0,0,0-.75-1.21,3.307,3.307,0,0,0-1.2-.77,4.6,4.6,0,0,0-1.63-.27c-0.25,0-.51.01-0.79,0.03l-0.81.09c-0.27.04-.52,0.09-0.76,0.14s-0.46.1-.65,0.16v9.7h2.09v-2.77a4.457,4.457,0,0,0,.73.24,4.119,4.119,0,0,0,.81.08,3.257,3.257,0,0,0,1.39-.28,2.852,2.852,0,0,0,1-.78,3.551,3.551,0,0,0,.62-1.21,5.332,5.332,0,0,0,.21-1.55A4.751,4.751,0,0,0,3160.44,1686.22Zm5.38,3.66a2.284,2.284,0,0,1-.63-0.09,1.507,1.507,0,0,1-.51-0.21v-3.76a2.9,2.9,0,0,1,.39-0.05,4.267,4.267,0,0,1,.52-0.02,1.5,1.5,0,0,1,1.28.58,2.492,2.492,0,0,1,.44,1.54c0,1.34-.5,2.01-1.49,2.01h0Zm3.36-3.66a3.539,3.539,0,0,0-.75-1.21,3.348,3.348,0,0,0-1.21-.77,4.51,4.51,0,0,0-1.62-.27c-0.25,0-.52.01-0.79,0.03s-0.55.06-.81,0.09-0.52.09-.77,0.14-0.45.1-.64,0.16v9.7h2.09v-2.77a3.533,3.533,0,0,0,1.54.32,3.18,3.18,0,0,0,1.38-.28,2.888,2.888,0,0,0,1.01-.78,3.551,3.551,0,0,0,.62-1.21,5.332,5.332,0,0,0,.21-1.55A4.751,4.751,0,0,0,3169.18,1686.22Zm7.01,3.42a5.189,5.189,0,0,1-1.07-.42l-0.62,1.73a3.744,3.744,0,0,0,.49.24,4.1,4.1,0,0,0,.68.24,8.2,8.2,0,0,0,.92.19,8.023,8.023,0,0,0,1.16.08,4.578,4.578,0,0,0,2.87-.75,2.512,2.512,0,0,0,.95-2.11,3.466,3.466,0,0,0-.18-1.19,2.192,2.192,0,0,0-.55-0.85,3.4,3.4,0,0,0-.93-0.64,13.588,13.588,0,0,0-1.32-.55c-0.24-.09-0.46-0.17-0.66-0.25a3.4,3.4,0,0,1-.54-0.27,1.091,1.091,0,0,1-.35-0.32,0.747,0.747,0,0,1-.13-0.45,0.761,0.761,0,0,1,.34-0.67,2.281,2.281,0,0,1,1.13-.21,3.832,3.832,0,0,1,1.2.16,5.283,5.283,0,0,1,.9.37l0.63-1.72a6.034,6.034,0,0,0-1.17-.47,6.124,6.124,0,0,0-1.7-.21,4.854,4.854,0,0,0-1.48.21,3.215,3.215,0,0,0-1.12.58,2.644,2.644,0,0,0-.72.91,2.987,2.987,0,0,0-.25,1.22,2.522,2.522,0,0,0,.24,1.14,2.42,2.42,0,0,0,.62.79,3.267,3.267,0,0,0,.85.55c0.32,0.15.63,0.27,0.95,0.39a6.341,6.341,0,0,1,1.54.67,0.948,0.948,0,0,1,.45.8,1.019,1.019,0,0,1-.07.4,0.759,0.759,0,0,1-.25.32,1.314,1.314,0,0,1-.49.21,3.22,3.22,0,0,1-.76.07A5.454,5.454,0,0,1,3176.19,1689.64Zm7.13-1.15a5.756,5.756,0,0,0,.14,1.3,2.227,2.227,0,0,0,1.36,1.65,3.834,3.834,0,0,0,1.42.23,5.2,5.2,0,0,0,1.13-.11,6.932,6.932,0,0,0,.84-0.27l-0.29-1.62a3.97,3.97,0,0,1-.66.17,4.02,4.02,0,0,1-.69.06,0.984,0.984,0,0,1-.93-0.39,2.1,2.1,0,0,1-.23-1.05v-2.59h2.51v-1.73h-2.51v-2.17l-2.09.33v6.19Zm12.91-2.27a3.661,3.661,0,0,0-.74-1.22,3.5,3.5,0,0,0-1.14-.78,3.689,3.689,0,0,0-1.46-.28,3.606,3.606,0,0,0-1.45.28,3.443,3.443,0,0,0-1.15.78,3.705,3.705,0,0,0-.76,1.22,4.787,4.787,0,0,0,0,3.17,3.592,3.592,0,0,0,.74,1.24,3.2,3.2,0,0,0,1.14.79,3.865,3.865,0,0,0,1.48.28,3.954,3.954,0,0,0,1.49-.28,3.382,3.382,0,0,0,1.14-.79,3.732,3.732,0,0,0,.73-1.24,5,5,0,0,0,.25-1.59A4.48,4.48,0,0,0,3196.23,1686.22Zm-2.25,3.12a1.245,1.245,0,0,1-1.09.56,1.28,1.28,0,0,1-1.11-.56,2.68,2.68,0,0,1-.39-1.54,2.612,2.612,0,0,1,.39-1.52,1.3,1.3,0,0,1,1.11-.55,1.26,1.26,0,0,1,1.09.55,2.612,2.612,0,0,1,.39,1.52A2.68,2.68,0,0,1,3193.98,1689.34Zm9.2-5.08c-0.12-.04-0.25-0.08-0.41-0.12s-0.32-.06-0.48-0.08l-0.47-.06c-0.16-.01-0.3-0.02-0.41-0.02a7.452,7.452,0,0,0-1.7.18,10.937,10.937,0,0,0-1.32.37v6.97h2.08v-5.63a3.535,3.535,0,0,1,.42-0.08,3.966,3.966,0,0,1,1.28.05c0.25,0.05.47,0.1,0.66,0.14Zm1.14,5.13a3.2,3.2,0,0,0,.71,1.21,3.283,3.283,0,0,0,1.22.8,4.537,4.537,0,0,0,1.73.3,6.807,6.807,0,0,0,.78-0.05c0.26-.02.51-0.06,0.74-0.1a5.12,5.12,0,0,0,.62-0.15,2.032,2.032,0,0,0,.45-0.17l-0.28-1.69a4.6,4.6,0,0,1-.91.26,5.907,5.907,0,0,1-1.12.1,2.425,2.425,0,0,1-1.43-.37,1.376,1.376,0,0,1-.6-1.03h4.73c0.01-.11.02-0.24,0.03-0.38s0.01-.28.01-0.4a3.937,3.937,0,0,0-.91-2.82,3.254,3.254,0,0,0-2.48-.96,3.542,3.542,0,0,0-1.31.25,3.366,3.366,0,0,0-1.12.74,3.67,3.67,0,0,0-.79,1.23,4.5,4.5,0,0,0-.3,1.71A4.658,4.658,0,0,0,3204.32,1689.39Zm1.91-2.31a3.155,3.155,0,0,1,.13-0.53,1.434,1.434,0,0,1,.26-0.45,1.234,1.234,0,0,1,.42-0.32,1.4,1.4,0,0,1,.6-0.12,1.252,1.252,0,0,1,.61.13,1.3,1.3,0,0,1,.41.32,1.368,1.368,0,0,1,.23.45,1.843,1.843,0,0,1,.1.52h-2.76Z" transform="translate(-3114 -1669.31)"/>
</svg>
