<svg xmlns="http://www.w3.org/2000/svg" width="20" height="16" viewBox="0 0 20 16">
  <defs>
    <style>
      .cls-1 {
        fill: #6e6e73;
        fill-rule: evenodd;
      }
    </style>
  </defs>
  <path class="cls-1" d="M43.553,2369H24.384a0.367,0.367,0,0,1-.384-0.37v-6.41c0-.01,0-0.02,0-0.03a0.719,0.719,0,0,1,.015-0.08,0.387,0.387,0,0,1,.024-0.07,0.035,0.035,0,0,1,.007-0.02l4.817-8.82a0.388,0.388,0,0,1,.333-0.2h9.535a0.391,0.391,0,0,1,.334.2l4.82,8.82a0.032,0.032,0,0,1,.011.02,0.494,0.494,0,0,1,.032.07c0.007,0.03.029,0.06,0.031,0.08s0.036,0.02.036,0.03v6.41A0.425,0.425,0,0,1,43.553,2369Zm-5.04-15.14h-9.09l-4.38,7.93h5.043a0.434,0.434,0,0,1,.367.32l0.748,2.57h5.535l0.748-2.57a0.433,0.433,0,0,1,.366-0.32h5.043Zm4.659,8.8h-5.04l-0.748,2.49a0.367,0.367,0,0,1-.366.25h-6.1a0.367,0.367,0,0,1-.366-0.25l-0.748-2.49H24.827v5.62H43.172v-5.62Zm-6.767-4.13-2.06-2.14v6.99H33.517v-6.99l-2.023,2.14a0.347,0.347,0,0,1-.525,0,0.4,0.4,0,0,1,.008-0.56l2.719-2.84a0.389,0.389,0,0,1,.542,0l2.711,2.84a0.406,0.406,0,0,1,0,.56A0.371,0.371,0,0,1,36.4,2358.53Z" transform="translate(-24 -2353)"/>
</svg>
