<svg xmlns="http://www.w3.org/2000/svg" width="20.031" height="20" viewBox="0 0 20.031 20">
  <defs>
    <style>
      .cls-1 {
        fill: #7c7e82;
        fill-rule: evenodd;
      }
    </style>
  </defs>
  <path id="Настройка" class="cls-1" d="M254.937,93.89a0.652,0.652,0,0,0-.643-0.492,2.208,2.208,0,0,1-1.511-3.843,0.555,0.555,0,0,0,.06-0.754,9.893,9.893,0,0,0-1.584-1.6,0.557,0.557,0,0,0-.76.061,2.3,2.3,0,0,1-2.494.56,2.222,2.222,0,0,1-1.351-2.171,0.554,0.554,0,0,0-.49-0.584,9.976,9.976,0,0,0-2.25-.006,0.556,0.556,0,0,0-.495.572,2.225,2.225,0,0,1-1.369,2.134,2.312,2.312,0,0,1-2.476-.564,0.557,0.557,0,0,0-.754-0.063,9.892,9.892,0,0,0-1.618,1.6,0.556,0.556,0,0,0,.06.76,2.217,2.217,0,0,1,.559,2.5,2.312,2.312,0,0,1-2.176,1.352,0.543,0.543,0,0,0-.577.491,10.055,10.055,0,0,0-.005,2.274,0.662,0.662,0,0,0,.656.492,2.192,2.192,0,0,1,2.057,1.37,2.224,2.224,0,0,1-.559,2.473,0.555,0.555,0,0,0-.061.753,9.983,9.983,0,0,0,1.582,1.6,0.556,0.556,0,0,0,.761-0.061,2.3,2.3,0,0,1,2.493-.561,2.22,2.22,0,0,1,1.353,2.171,0.556,0.556,0,0,0,.491.584,9.925,9.925,0,0,0,2.25.006,0.557,0.557,0,0,0,.495-0.573,2.222,2.222,0,0,1,1.368-2.132,2.308,2.308,0,0,1,2.476.563,0.559,0.559,0,0,0,.755.063,9.989,9.989,0,0,0,1.618-1.6,0.556,0.556,0,0,0-.06-0.76,2.215,2.215,0,0,1-.56-2.495,2.238,2.238,0,0,1,2.045-1.356l0.124,0a0.556,0.556,0,0,0,.585-0.49A10.055,10.055,0,0,0,254.937,93.89Zm-9.921,4.467a3.336,3.336,0,1,1,3.335-3.335A3.34,3.34,0,0,1,245.016,98.357Z" transform="translate(-235 -85)"/>
</svg>
