<svg xmlns="http://www.w3.org/2000/svg" width="30" height="15" viewBox="0 0 30 15">
  <defs>
    <style>
      .cls-1 {
        fill: #6e6e73;
        fill-rule: evenodd;
      }
    </style>
  </defs>
  <path id="Forma_1" data-name="Forma 1" class="cls-1" d="M254.514,696.059h-0.551v-6.088H254a0.471,0.471,0,1,0,0-.942h-7.29v-2.071h0.033a0.471,0.471,0,1,0,0-.941h-2.625v-1.145a1.481,1.481,0,0,0,1.037-1.4A1.5,1.5,0,0,0,243.628,682h-7.257a1.5,1.5,0,0,0-1.522,1.475,1.482,1.482,0,0,0,1.036,1.4v1.145h-2.624a0.471,0.471,0,1,0,0,.941h0.033v2.071H226a0.471,0.471,0,1,0,0,.942h0.033v6.088h-0.551a0.471,0.471,0,1,0,0,.941h29.028A0.471,0.471,0,1,0,254.514,696.059Zm-14.028-4.08h3.175v4.08h-3.175v-4.08Zm-0.972,4.08h-3.175v-4.08h3.175v4.08Zm4.633-5.021h-8.294a0.478,0.478,0,0,0-.486.47v4.551h-1.1v-7.093h11.468v7.093h-1.1v-4.551A0.478,0.478,0,0,0,244.147,691.038Zm-10.853.941v4.08h-2.657v-4.08h2.657Zm13.412,0h2.657v4.08h-2.657v-4.08Zm3.629,0h2.656v4.08h-2.656v-4.08Zm2.656-2.008v1.067h-6.285v-1.067h6.285Zm-16.62-7.03h7.257a0.534,0.534,0,1,1,0,1.067h-7.257A0.534,0.534,0,1,1,236.371,682.941Zm0.486,2.009h6.286v1.067h-6.286V684.95Zm8.877,2.008v1.067H234.266v-1.067h11.468Zm-12.44,3.013v1.067h-6.285v-1.067h6.285Zm-6.285,2.008h2.656v4.08h-2.656v-4.08Z" transform="translate(-225 -682)"/>
</svg>
