<svg xmlns="http://www.w3.org/2000/svg" width="24" height="16" viewBox="0 0 24 16">
  <defs>
    <style>
      .cls-1 {
        fill: #d69b4e;
        fill-rule: evenodd;
      }
    </style>
  </defs>
  <path id="Forma_1" data-name="Forma 1" class="cls-1" d="M3139.65,3977h-15.3l-4.35,5.48,12,10.52,12-10.51Zm-3.08,5.88-4.57,8.5-4.53-8.5h9.1Zm-8.68-.9,4.11-3.89,4.11,3.89h-8.22Zm5.26-4.07h5.56l-1.57,3.77Zm-6.23,3.71-1.31-3.71h5.24Zm-0.52,1.26,3.98,7.46-8.52-7.46h4.54Zm11.24,0h4.5l-8.5,7.45Zm0.41-.9,1.49-3.61,2.86,3.61h-4.35Zm-13.38-3.88,1.37,3.88h-4.44Z" transform="translate(-3120 -3977)"/>
</svg>
