<svg xmlns="http://www.w3.org/2000/svg" width="24" height="23" viewBox="0 0 24 23">
  <defs>
    <style>
      .cls-1 {
        fill: #232020;
        fill-rule: evenodd;
      }
    </style>
  </defs>
  <path id="Forma_1_copy_4" data-name="Forma 1 copy 4" class="cls-1" d="M4469.84,2049a0.438,0.438,0,0,1-.25-0.08,0.414,0.414,0,0,1-.17-0.42l1.32-7.79-5.62-5.51a0.442,0.442,0,0,1-.11-0.45,0.423,0.423,0,0,1,.35-0.29l7.77-1.14,3.48-7.08a0.418,0.418,0,0,1,.38-0.24h0a0.422,0.422,0,0,1,.39.24l3.47,7.08,7.78,1.14a0.451,0.451,0,0,1,.35.29,0.465,0.465,0,0,1-.11.45l-5.63,5.51,1.33,7.79a0.433,0.433,0,0,1-.17.42,0.41,0.41,0,0,1-.45.03l-6.96-3.67-6.95,3.67A0.455,0.455,0,0,1,4469.84,2049Zm-3.5-13.81,5.17,5.06a0.442,0.442,0,0,1,.12.38l-1.22,7.15,6.38-3.38a0.467,0.467,0,0,1,.4,0l6.39,3.38-1.22-7.15a0.415,0.415,0,0,1,.12-0.38l5.16-5.06-7.13-1.05a0.438,0.438,0,0,1-.33-0.23l-3.19-6.5-3.19,6.5a0.441,0.441,0,0,1-.32.24Z" transform="translate(-4465 -2026)"/>
</svg>
