<svg xmlns="http://www.w3.org/2000/svg" width="13" height="13" viewBox="0 0 13 13">
  <defs>
    <style>
      .cls-1 {
        fill: #352f2f;
        fill-rule: evenodd;
      }
    </style>
  </defs>
  <path id="Закладки" class="cls-1" d="M2879.94,3765.87a1.237,1.237,0,0,0-1.09-.9l-3.05-.23-1.14-2.94a1.228,1.228,0,0,0-1.15-.8,1.246,1.246,0,0,0-1.16.8l-1.14,2.94-3.06.23a1.271,1.271,0,0,0-1.09.92,1.307,1.307,0,0,0,.39,1.37l2.32,2.05-0.72,3.08a1.3,1.3,0,0,0,.22,1.1,1.218,1.218,0,0,0,.98.51h0a1.216,1.216,0,0,0,.66-0.2l2.59-1.67,2.6,1.67a1.141,1.141,0,0,0,.64.19,1.26,1.26,0,0,0,.99-0.49,1.339,1.339,0,0,0,.23-1.1l-0.72-3.09,2.32-2.05A1.316,1.316,0,0,0,2879.94,3765.87Zm-1.07.54-2.82,2.5,0.88,3.74a0.238,0.238,0,0,1-.04.16,0.173,0.173,0,0,1-.23.05l-3.16-2.03-3.15,2.03a0.193,0.193,0,0,1-.1.03,0.172,0.172,0,0,1-.14-0.08,0.188,0.188,0,0,1-.03-0.15l0.88-3.75-2.83-2.5a0.169,0.169,0,0,1-.05-0.19,0.171,0.171,0,0,1,.16-0.14l3.7-.29,1.39-3.56a0.181,0.181,0,0,1,.18-0.12,0.161,0.161,0,0,1,.16.11l1.4,3.57,3.7,0.29a0.174,0.174,0,0,1,.16.13A0.177,0.177,0,0,1,2878.87,3766.41Z" transform="translate(-2867 -3761)"/>
</svg>
