<svg xmlns="http://www.w3.org/2000/svg" width="16" height="16" viewBox="0 0 16 16">
  <defs>
    <style>
      .cls-1 {
        fill: #db9316;
        fill-rule: evenodd;
      }
    </style>
  </defs>
  <path id="Forma_1" data-name="Forma 1" class="cls-1" d="M3136,3924.07a8,8,0,1,0,2.93,10.93A8,8,0,0,0,3136,3924.07Zm-7.5,12.99a7,7,0,1,1,9.56-2.56A6.988,6.988,0,0,1,3128.5,3937.06Zm6.24-10.08a0.574,0.574,0,0,0-.24-0.31,0.459,0.459,0,0,0-.38-0.05l-4.76,1.24a0.492,0.492,0,0,0-.35.61,0.508,0.508,0,0,0,.62.36l3.58-.94-3.9,6.75a0.509,0.509,0,0,0,.88.51l3.9-6.75,0.98,3.57a0.5,0.5,0,1,0,.97-0.26Z" transform="translate(-3124 -3923)"/>
</svg>
