<svg xmlns="http://www.w3.org/2000/svg" width="22" height="22" viewBox="0 0 22 22">
  <defs>
    <style>
      .cls-1 {
        fill: #6e6e73;
        fill-rule: evenodd;
      }
    </style>
  </defs>
  <path id="Forma_1" data-name="Forma 1" class="cls-1" d="M249.16,587.9a0.351,0.351,0,0,0-.351-0.351H233.191a0.351,0.351,0,0,0,0,.7h15.618A0.351,0.351,0,0,0,249.16,587.9Zm-13.711,7.072h-2.29a0.351,0.351,0,0,0,0,.7h2.29A0.351,0.351,0,0,0,235.449,594.975Zm9.23,0h-7.358a0.351,0.351,0,0,0,0,.7h7.358A0.351,0.351,0,0,0,244.679,594.975Zm4.161,0h-2.289a0.351,0.351,0,0,0,0,.7h2.289A0.351,0.351,0,0,0,248.84,594.975Zm-4.97-2.934-0.371.99h-5l-0.371-.99a0.351,0.351,0,0,0-.657.247l0.456,1.217a0.35,0.35,0,0,0,.328.228h5.485a0.351,0.351,0,0,0,.329-0.228l0.456-1.217A0.351,0.351,0,0,0,243.87,592.041Zm7.779-6.83a0.351,0.351,0,0,0-.351.351v1.99h-0.769l-1.178-5.526a0,0,0,0,1,0,0l-0.6-2.83A1.556,1.556,0,0,0,247.272,578H234.728a1.556,1.556,0,0,0-1.475,1.193l-0.6,2.831s-1.179,5.528-1.179,5.528H230.7v-1.99a0.351,0.351,0,0,0-.7,0V587.9a0.351,0.351,0,0,0,.351.351H231.4v8.011a1.289,1.289,0,0,0,.936,1.238v2.146a0.351,0.351,0,0,0,.351.351h3.226a0.351,0.351,0,0,0,.351-0.351v-1.042a0.351,0.351,0,0,0-.7,0V599.3h-2.523v-1.746h15.914V599.3h-2.523v-0.691a0.351,0.351,0,0,0-.7,0v1.042a0.351,0.351,0,0,0,.351.351h3.225a0.352,0.352,0,0,0,.352-0.351V597.5a1.289,1.289,0,0,0,.936-1.238v-8.011h1.053A0.351,0.351,0,0,0,252,587.9v-2.341A0.351,0.351,0,0,0,251.649,585.211ZM233.94,579.34a0.866,0.866,0,0,1,.788-0.638h12.544a0.866,0.866,0,0,1,.788.638l0.513,2.4H233.427Zm15.368,17.51H232.691a0.586,0.586,0,0,1-.585-0.585v-2.532h4.279a0.351,0.351,0,0,0,.329-0.474l-0.456-1.218a1.446,1.446,0,0,0-1.277-.885h-1.587a0.351,0.351,0,1,0,0,.7h1.587a0.746,0.746,0,0,1,.62.43l0.278,0.743h-3.773V587.94l1.172-5.493h15.444l1.172,5.493v5.091h-3.773l0.278-.743a0.746,0.746,0,0,1,.62-0.43h1.587a0.351,0.351,0,1,0,0-.7h-1.587a1.446,1.446,0,0,0-1.277.885l-0.456,1.217a0.351,0.351,0,0,0,.329.475h4.279v2.532A0.587,0.587,0,0,1,249.308,596.85Z" transform="translate(-230 -578)"/>
</svg>
