<svg id="vip" xmlns="http://www.w3.org/2000/svg" width="36" height="18" viewBox="0 0 36 18">
  <defs>
    <style>
      .cls-1 {
        fill: #fedb60;
      }

      .cls-2 {
        fill: #323232;
        fill-rule: evenodd;
      }
    </style>
  </defs>
  <rect id="Rounded_Rectangle_1416" data-name="Rounded Rectangle 1416" class="cls-1" width="36" height="18" rx="9" ry="9"/>
  <path id="VIP-2" data-name="VIP" class="cls-2" d="M3129.17,3818.35c-0.42,1.26-.84,2.48-1.26,3.65s-0.84,2.27-1.28,3.29c-0.44-1.03-.87-2.12-1.29-3.29s-0.84-2.39-1.27-3.65h-1.28c0.29,0.88.58,1.69,0.86,2.44s0.55,1.46.82,2.13,0.53,1.32.79,1.93,0.53,1.22.8,1.82h1.09c0.28-.6.54-1.21,0.8-1.82s0.52-1.26.79-1.93,0.53-1.38.81-2.13,0.56-1.56.87-2.44h-1.25Zm2.52,8.32h1.16v-8.32h-1.16v8.32Zm4.45-8.36a6.748,6.748,0,0,0-1.1.16v8.2h1.16v-3.09h0.93a8.33,8.33,0,0,0,1.57-.14,3.506,3.506,0,0,0,1.18-.46,2.185,2.185,0,0,0,.74-0.83,2.6,2.6,0,0,0,.26-1.23,2.281,2.281,0,0,0-.94-1.99,4.669,4.669,0,0,0-2.69-.66C3136.91,3818.27,3136.54,3818.28,3136.14,3818.31Zm2.09,1.05a2.094,2.094,0,0,1,.74.26,1.382,1.382,0,0,1,.5.49,1.505,1.505,0,0,1,.19.8,1.66,1.66,0,0,1-.18.82,1.253,1.253,0,0,1-.51.51,2.272,2.272,0,0,1-.81.27,7,7,0,0,1-1.08.08h-0.88v-3.27q0.4-.03,1.14-0.03A5.1,5.1,0,0,1,3138.23,3819.36Z" transform="translate(-3114 -3814)"/>
</svg>
