<svg width="26" height="20" viewBox="0 0 26 20" fill="none" xmlns="http://www.w3.org/2000/svg"><path d="M0 0h25.411v20H0z"/><path d="M0 0h25.411v20H0z"/><path d="M0 0h25.411v20H0z"/><path d="M0 0h25.411v20H0z"/><path d="M24.565 3.116a2.732 2.732 0 0 0-2.005-.845h-4.01v-.049c0-.604-.24-1.183-.651-1.57A2.21 2.21 0 0 0 16.329 0H9.081a2.225 2.225 0 0 0-2.246 2.222v.049H2.85c-.797 0-1.497.314-2.005.845A2.872 2.872 0 0 0 0 5.12v12.03c0 .797.314 1.497.845 2.005A2.872 2.872 0 0 0 2.85 20h19.71c.798 0 1.498-.314 2.005-.845a2.872 2.872 0 0 0 .846-2.005V5.12a2.73 2.73 0 0 0-.846-2.004zm-.41 14.034h-.025c0 .434-.169.821-.458 1.11a1.55 1.55 0 0 1-1.112.46H2.85a1.55 1.55 0 0 1-1.11-.46 1.55 1.55 0 0 1-.46-1.11V5.12c0-.434.17-.82.46-1.11a1.55 1.55 0 0 1 1.11-.46h4.662a.65.65 0 0 0 .652-.651v-.7c0-.267.097-.508.266-.677a.944.944 0 0 1 .676-.266h7.222a.95.95 0 0 1 .677.266c.169.169.265.41.265.676v.7c0 .363.29.653.653.653h4.662c.434 0 .82.169 1.11.459.29.29.46.676.46 1.11v12.03z" fill="#ED222B"/><path d="M12.706 5.193c-1.643 0-3.14.677-4.203 1.74a5.894 5.894 0 0 0-1.74 4.202c0 1.643.677 3.14 1.74 4.203a5.894 5.894 0 0 0 4.203 1.74 5.95 5.95 0 0 0 4.202-1.74 5.895 5.895 0 0 0 1.74-4.203c0-1.642-.677-3.14-1.74-4.203a5.953 5.953 0 0 0-4.203-1.739zm3.285 9.251a4.72 4.72 0 0 1-3.285 1.353 4.72 4.72 0 0 1-3.286-1.353 4.618 4.618 0 0 1-1.352-3.285c0-1.28.531-2.44 1.352-3.285a4.618 4.618 0 0 1 3.286-1.352c1.28 0 2.44.531 3.285 1.352a4.618 4.618 0 0 1 1.352 3.285c.024 1.28-.507 2.44-1.352 3.285zm5.313-6.908a1.184 1.184 0 1 0 0-2.367 1.184 1.184 0 0 0 0 2.367z" fill="#ED222B"/></svg>