<svg width="27" height="27" viewBox="0 0 27 27" fill="none" xmlns="http://www.w3.org/2000/svg"><path d="M.995 0h26.004v26.008H.995z"/><path d="M.995 0h26.004v26.008H.995z"/><path d="M.995 0h26.004v26.008H.995z"/><path d="M.995 0h26.004v26.008H.995z"/><path d="M1.022 16h10.002v10.008H1.022z"/><path d="M1.022 20.004c3.309 0 6 2.691 6 6.004h4.002C11.024 20.492 6.536 16 1.022 16v4.004z" fill="#ED222B"/><path d="M.995 8h18.004v18.008H.995z"/><path d="M.995 12c7.719 0 14.002 6.285 14.002 14.008h4.002C18.999 16.078 10.923 8 .995 8v4z" fill="#ED222B"/><path d="M.995 0h26.004v26.008H.995z"/><path d="M.995 4c12.133 0 22.004 9.871 22.004 22.008h4C26.999 11.664 15.336 0 .995 0v4z" fill="#ED222B"/></svg>