<svg width="60" height="60" viewBox="0 0 60 60" fill="none" xmlns="http://www.w3.org/2000/svg"><path d="M0 0h60v60H0z"/><path d="M51.21 0H8.79C3.942 0 0 3.943 0 8.79v42.42C0 56.058 3.943 60 8.79 60h42.42c4.847 0 8.79-3.943 8.79-8.79V8.79C60 3.942 56.057 0 51.21 0zM30.118 45.703c-8.723 0-15.82-7.097-15.82-15.82 0-8.724 7.097-15.82 15.82-15.82 8.724 0 15.82 7.096 15.82 15.82 0 8.723-7.096 15.82-15.82 15.82zm17.578-28.125a5.28 5.28 0 0 1-5.273-5.273 5.28 5.28 0 0 1 5.273-5.274 5.28 5.28 0 0 1 5.274 5.274 5.28 5.28 0 0 1-5.274 5.273z" fill="#ED222B"/><path d="M47.695 10.547a1.759 1.759 0 0 0 0 3.515 1.759 1.759 0 0 0 0-3.515zm-17.578 7.031c-6.784 0-12.305 5.52-12.305 12.305 0 6.784 5.521 12.305 12.305 12.305s12.305-5.521 12.305-12.305-5.52-12.305-12.305-12.305z" fill="#ED222B"/></svg>