<svg width="74" height="60" viewBox="0 0 74 60" fill="none" xmlns="http://www.w3.org/2000/svg"><path d="M0 0h73.311v60H0z"/><path d="M27.35 60a62.9 62.9 0 0 1-9.716-.771C11.852 58.322 6 55.297 4.344 54.392L0 52.017l4.703-1.547c5.14-1.69 8.267-2.739 12.138-4.38-3.876-1.878-6.863-5.254-8.3-9.62l-1.095-3.32.897.137a16.32 16.32 0 0 1-2.043-2.52c-1.852-2.812-2.832-6.25-2.624-9.194l.206-2.9 1.736.673a16.225 16.225 0 0 1-1.573-4.407c-.757-3.774-.123-7.784 1.787-11.29L7.344.874l2.022 2.428C15.76 10.984 23.86 15.54 33.472 16.874c-.392-2.706-.098-5.318.876-7.66 1.134-2.726 3.15-5.037 5.83-6.685C43.156.7 46.766-.187 50.344.033c3.796.233 7.242 1.655 9.98 4.116 1.337-.347 2.322-.718 3.653-1.22.8-.3 1.709-.643 2.845-1.035L71.01.451l-2.732 7.8a13.8 13.8 0 0 1 .56-.036l4.473-.202-2.644 3.612c-.151.207-.19.266-.244.347-.213.321-.478.72-4.106 5.565-.908 1.213-1.362 2.793-1.277 4.45.321 6.296-.451 11.992-2.298 16.93-1.746 4.67-4.452 8.679-8.041 11.912-4.442 4-10.107 6.74-16.836 8.14C34.564 59.656 31.019 60 27.35 60z" fill="#ED222B"/></svg>