<svg width="24" height="15" viewBox="0 0 24 15" fill="none" xmlns="http://www.w3.org/2000/svg"><path d="M0 0h23.117v15H0z"/><path d="M0 0h23.117v15H0z"/><path d="M17.944 0H.816A.82.82 0 0 0 0 .816v13.368A.82.82 0 0 0 .816 15h17.128a.82.82 0 0 0 .816-.816v-3.86l2.964 2.965c.16.16.358.239.577.239.1 0 .219-.02.318-.06a.808.808 0 0 0 .498-.756V2.268a.85.85 0 0 0-.498-.756c-.298-.12-.656-.06-.875.179L18.78 4.655V.815A.836.836 0 0 0 17.944 0zm-.815 6.625v6.764H1.61V1.61h15.52v5.014zm4.356-2.388v6.546L18.76 8.056V6.983l2.725-2.746z" fill="#ED222B"/></svg>