<svg width="60" height="60" viewBox="0 0 60 60" fill="none" xmlns="http://www.w3.org/2000/svg"><path d="M0 0h59.999v60H0z"/><path d="M0 0h59.999v60H0z"/><path d="M0 0h59.999v60H0z"/><path d="M56.699 3.3c-2.2-2.2-4.85-3.3-7.949-3.3h-37.5C8.15 0 5.5 1.1 3.3 3.3 1.1 5.501 0 8.151 0 11.25v37.5c0 3.098 1.1 5.748 3.3 7.95 2.201 2.2 4.851 3.3 7.95 3.3h37.5c3.098 0 5.748-1.1 7.948-3.3 2.2-2.202 3.301-4.852 3.301-7.95v-37.5c0-3.099-1.1-5.75-3.3-7.95zm-21.27 5.371h2.618v10.625c0 .625.012.964.039 1.016.026.417.235.625.625.625.52 0 1.068-.404 1.64-1.21V8.67h2.618v14.453h-2.618V21.56c-1.068 1.172-2.07 1.758-3.008 1.758-.833 0-1.393-.351-1.68-1.054-.156-.469-.233-1.185-.233-2.149V8.671zm-9.882 4.688c0-1.51.273-2.643.82-3.398.703-.99 1.719-1.485 3.047-1.485 1.276 0 2.292.496 3.047 1.485.547.755.82 1.888.82 3.398v5.078c0 1.563-.273 2.696-.82 3.399-.755.99-1.77 1.484-3.047 1.484-1.328 0-2.344-.495-3.047-1.484-.547-.755-.82-1.888-.82-3.399V13.36zM18.515 3.71l2.07 7.618 1.993-7.618h2.93l-3.516 11.563v7.851h-2.89v-7.851c-.287-1.432-.886-3.49-1.797-6.172l-.898-2.695-.938-2.696h3.046zm32.189 47.15a5.492 5.492 0 0 1-1.661 2.851 5.124 5.124 0 0 1-2.949 1.368c-3.567.39-8.932.585-16.093.585-7.162 0-12.527-.195-16.094-.585a5.13 5.13 0 0 1-2.95-1.368 5.496 5.496 0 0 1-1.66-2.852c-.52-2.187-.78-5.573-.78-10.156 0-4.506.26-7.89.78-10.157.261-1.145.815-2.102 1.66-2.871a5.213 5.213 0 0 1 2.99-1.348c3.54-.391 8.892-.586 16.054-.586 7.187 0 12.552.196 16.093.586a5.27 5.27 0 0 1 2.968 1.348 5.341 5.341 0 0 1 1.68 2.872c.495 2.16.742 5.546.742 10.156 0 4.583-.26 7.968-.78 10.156z" fill="#ED222B"/><path d="M11.718 33.477h3.047V50h2.89V33.477h3.126v-2.735h-9.063v2.735zm14.298 13.124c-.573.807-1.12 1.21-1.641 1.21-.365 0-.56-.194-.586-.585-.026-.052-.04-.39-.04-1.016V35.663h-2.577v11.328c0 .99.078 1.693.234 2.109.235.73.782 1.093 1.64 1.093.964 0 1.954-.585 2.97-1.757v1.563h2.616V35.664h-2.616V46.6zm10.117-11.133c-.937 0-1.823.52-2.656 1.563v-6.289H30.86V50h2.617v-1.407c.86 1.068 1.746 1.601 2.656 1.601 1.068 0 1.758-.546 2.07-1.64.182-.547.273-1.497.273-2.852V40c0-1.38-.092-2.344-.273-2.891-.312-1.094-1.002-1.64-2.07-1.64zm-.234 10.43c0 1.276-.378 1.913-1.133 1.914-.442 0-.873-.208-1.29-.625v-8.75c.417-.416.848-.625 1.29-.625.755 0 1.133.65 1.133 1.953v6.133zm9.725-.019a8.84 8.84 0 0 1-.039.917c-.156.677-.547 1.015-1.172 1.015-.885 0-1.328-.664-1.328-1.992v-2.538h5.196v-2.97c0-1.51-.273-2.63-.82-3.359-.703-.989-1.72-1.484-3.047-1.484-1.329 0-2.37.495-3.126 1.484-.52.704-.78 1.824-.78 3.36v5.039c0 1.536.273 2.657.82 3.36.755.99 1.81 1.485 3.164 1.485 1.38 0 2.422-.521 3.126-1.563.312-.47.508-.99.586-1.563.051-.365.077-.925.077-1.68v-.351h-2.656v.84h-.001zm-2.538-6.075c0-1.328.43-1.992 1.29-1.992.859 0 1.288.664 1.288 1.992v1.329h-2.578v-1.329zM29.414 20.937c.833 0 1.25-.664 1.25-1.992V12.85c0-1.354-.417-2.031-1.25-2.031s-1.25.677-1.25 2.03v6.095c0 1.328.417 1.992 1.25 1.992z" fill="#ED222B"/></svg>