<svg xmlns="http://www.w3.org/2000/svg" width="241.78" height="26.78" viewBox="0 0 241.78 26.78">
  <defs>
    <style>
      .cls-1 {
        fill: #fefefe;
        fill-rule: evenodd;
      }
    </style>
  </defs>
  <path id="КазанКебаб" class="cls-1" d="M2594.22,4544.03v-7.73l2.92-3.03,7.83,10.76h6.67l-10.75-14.55,10.28-10.71h-6.71l-10.24,11.04v-11.04h-5.56v25.26h5.56Zm33.69-2.1v2.1h5.3V4532.8q0-4.065-2.09-6.17-2.16-2.16-6.53-2.16a18.481,18.481,0,0,0-7.5,1.55l1.37,4.19a15.494,15.494,0,0,1,5.34-1.05q4.14,0,4.14,3.54v0.32a14.345,14.345,0,0,0-4.72-.79,9.354,9.354,0,0,0-5.68,1.55,5.348,5.348,0,0,0-2.11,4.62,5.444,5.444,0,0,0,1.89,4.4,7.137,7.137,0,0,0,4.75,1.59,7.467,7.467,0,0,0,5.84-2.46h0Zm-6.35-1.96a2.06,2.06,0,0,1-.83-1.72,2.349,2.349,0,0,1,.99-2.04,4.866,4.866,0,0,1,2.8-.7,8.234,8.234,0,0,1,3.5.72v0.98a2.988,2.988,0,0,1-1.19,2.43,4.813,4.813,0,0,1-3.11.96A3.464,3.464,0,0,1,2621.56,4539.97Zm24.92-11.17a2.926,2.926,0,0,1,1.81.54,1.583,1.583,0,0,1,.72,1.3,1.725,1.725,0,0,1-.76,1.41,3.272,3.272,0,0,1-2.02.57H2644v3.43h2.27a4.266,4.266,0,0,1,2.36.56,1.653,1.653,0,0,1,.85,1.43,1.775,1.775,0,0,1-.81,1.46,3.33,3.33,0,0,1-2.04.59,8.654,8.654,0,0,1-5.81-2.2l-2.52,3.5a12.756,12.756,0,0,0,8.8,3.07,8.841,8.841,0,0,0,5.59-1.7,5.121,5.121,0,0,0,2.2-4.22q0-3.285-3.43-4.51a4.514,4.514,0,0,0,2.96-4.37,4.436,4.436,0,0,0-2.11-3.73,8.847,8.847,0,0,0-5.25-1.5,11.572,11.572,0,0,0-8.15,3.03l2.34,3.36a7.31,7.31,0,0,1,5.23-2.02h0Zm25.98,13.13v2.1h5.3V4532.8q0-4.065-2.09-6.17c-1.45-1.44-3.62-2.16-6.53-2.16a18.563,18.563,0,0,0-7.51,1.55l1.37,4.19a15.494,15.494,0,0,1,5.34-1.05q4.155,0,4.15,3.54v0.32a14.389,14.389,0,0,0-4.72-.79,9.334,9.334,0,0,0-5.68,1.55,5.348,5.348,0,0,0-2.11,4.62,5.444,5.444,0,0,0,1.89,4.4,7.11,7.11,0,0,0,4.74,1.59,7.474,7.474,0,0,0,5.85-2.46h0Zm-6.35-1.96a2.034,2.034,0,0,1-.83-1.72,2.349,2.349,0,0,1,.99-2.04,4.831,4.831,0,0,1,2.79-.7,8.2,8.2,0,0,1,3.5.72v0.98a2.961,2.961,0,0,1-1.19,2.43,4.765,4.765,0,0,1-3.1.96A3.464,3.464,0,0,1,2666.11,4539.97Zm30.76-15.29v7.44h-6.74v-7.44h-5.48v19.35h5.48v-7.4h6.74v7.4h5.49v-19.35h-5.49Zm18.69,19.35v-7.73l2.92-3.03,7.83,10.76h6.67l-10.75-14.55,10.28-10.71h-6.71l-10.24,11.04v-11.04H2710v25.26h5.56Zm38.7-3.18-3.14-2.78a6.688,6.688,0,0,1-4.68,1.99,4.841,4.841,0,0,1-3.11-.98,4.709,4.709,0,0,1-1.62-2.81h13.45c0.05-.67.08-1.16,0.08-1.45a11.649,11.649,0,0,0-2.42-7.47,8.418,8.418,0,0,0-7-3.03,8.931,8.931,0,0,0-6.85,2.93,10.149,10.149,0,0,0-2.71,7.14,9.717,9.717,0,0,0,2.85,7.27,9.907,9.907,0,0,0,7.25,2.8,9.621,9.621,0,0,0,7.9-3.61h0Zm-11.2-11.02a3.739,3.739,0,0,1,2.76-1.1,3.654,3.654,0,0,1,2.76,1.11,5.263,5.263,0,0,1,1.32,3h-8.26A5.383,5.383,0,0,1,2743.06,4529.83Zm24.67,8.46a4.981,4.981,0,0,1-1.35-3.54,5.2,5.2,0,0,1,1.3-3.59,4.3,4.3,0,0,1,3.36-1.46,4.371,4.371,0,0,1,3.37,1.48,5.459,5.459,0,0,1,.05,7.13,4.31,4.31,0,0,1-3.35,1.42A4.46,4.46,0,0,1,2767.73,4538.29Zm10.56,3.32a9.384,9.384,0,0,0,2.88-6.93,9.168,9.168,0,0,0-9.16-9.27,9.2,9.2,0,0,0-4.51,1.02,6.393,6.393,0,0,0-2.52,2.22q0.285-3.645,4.68-4.54l10.61-2.1-0.87-4.33-10.35,1.92a10.151,10.151,0,0,0-3.62,1.37,7.95,7.95,0,0,0-2.38,2.2,9.851,9.851,0,0,0-1.34,2.96,19.214,19.214,0,0,0-.63,3.26c-0.1,1.03-.14,2.2-0.14,3.52q0,5.6,2.59,8.57t7.51,2.98A9.922,9.922,0,0,0,2778.29,4541.61Zm20.27,0.32v2.1h5.3V4532.8q0-4.065-2.09-6.17c-1.45-1.44-3.62-2.16-6.53-2.16a18.481,18.481,0,0,0-7.5,1.55l1.37,4.19a15.485,15.485,0,0,1,5.33-1.05q4.155,0,4.15,3.54v0.32a14.389,14.389,0,0,0-4.72-.79,9.334,9.334,0,0,0-5.68,1.55,5.348,5.348,0,0,0-2.11,4.62,5.444,5.444,0,0,0,1.89,4.4,7.11,7.11,0,0,0,4.74,1.59,7.474,7.474,0,0,0,5.85-2.46h0Zm-6.35-1.96a2.034,2.034,0,0,1-.83-1.72,2.349,2.349,0,0,1,.99-2.04,4.844,4.844,0,0,1,2.8-.7,8.188,8.188,0,0,1,3.49.72v0.98a2.961,2.961,0,0,1-1.19,2.43,4.765,4.765,0,0,1-3.1.96A3.464,3.464,0,0,1,2792.21,4539.97Zm24.8-1.68a4.947,4.947,0,0,1-1.36-3.54,5.247,5.247,0,0,1,1.3-3.59,4.312,4.312,0,0,1,3.36-1.46,4.371,4.371,0,0,1,3.37,1.48,5.459,5.459,0,0,1,.05,7.13,4.31,4.31,0,0,1-3.35,1.42A4.423,4.423,0,0,1,2817.01,4538.29Zm10.55,3.32a9.384,9.384,0,0,0,2.88-6.93,9.168,9.168,0,0,0-9.16-9.27,9.2,9.2,0,0,0-4.51,1.02,6.466,6.466,0,0,0-2.52,2.22q0.285-3.645,4.69-4.54l10.6-2.1-0.87-4.33-10.35,1.92a10.151,10.151,0,0,0-3.62,1.37,8.072,8.072,0,0,0-2.38,2.2,9.851,9.851,0,0,0-1.34,2.96,19.214,19.214,0,0,0-.63,3.26c-0.1,1.03-.14,2.2-0.14,3.52q0,5.6,2.59,8.57,2.61,2.985,7.51,2.98A9.906,9.906,0,0,0,2827.56,4541.61Z" transform="translate(-2588.66 -4517.69)"/>
</svg>
