<svg xmlns="http://www.w3.org/2000/svg" width="227.44" height="32.03" viewBox="0 0 227.44 32.03">
  <defs>
    <style>
      .cls-1 {
        fill: #fefefe;
        fill-rule: evenodd;
      }
    </style>
  </defs>
  <path id="ЛяФореста" class="cls-1" d="M2592.02,4362q0,4.98-.29,8.14a16.612,16.612,0,0,1-.96,4.74,4.639,4.639,0,0,1-1.44,2.11,3.5,3.5,0,0,1-2,.53,6.219,6.219,0,0,1-.87-0.08l-0.36,4.59a11.871,11.871,0,0,0,2.93.32,6.746,6.746,0,0,0,4.72-1.55q1.7-1.545,2.58-5.63a57.284,57.284,0,0,0,.88-11.48v-1.91h7.29v20.25h5.55v-25.26h-18.03V4362Zm32.68,0.68a8.665,8.665,0,0,0-5.77,1.75,5.882,5.882,0,0,0-2.06,4.71,5.745,5.745,0,0,0,4.04,5.78l-4.94,7.11h6.35l4.07-6.21h2.96v6.21h5.48v-19.35H2624.7Zm-1.43,8.54a2.109,2.109,0,0,1-.84-1.79,2.133,2.133,0,0,1,.83-1.82,3.788,3.788,0,0,1,2.34-.63h3.75v4.87h-3.71A3.926,3.926,0,0,1,2623.27,4371.22Zm40.69-6.5a6.313,6.313,0,0,1,0,8.95,7.06,7.06,0,0,1-4.92,1.68v-12.3A7.055,7.055,0,0,1,2663.96,4364.72Zm-4.92,15.58q5.73,0,9.12-3.16a10.5,10.5,0,0,0,3.39-8.03,10.157,10.157,0,0,0-3.41-7.92q-3.405-3.09-9.1-3.09v-2.31h-5.56v2.31q-5.73,0-9.12,3.07a10.164,10.164,0,0,0-3.39,7.9,10.555,10.555,0,0,0,3.39,8.07q3.39,3.15,9.12,3.16v2.74h5.56v-2.74Zm-10.5-6.63a6.266,6.266,0,0,1,0-8.95,7.124,7.124,0,0,1,4.94-1.67v12.3A7.129,7.129,0,0,1,2648.54,4373.67Zm49.13-1.28a9.593,9.593,0,0,0-2.98-7.16,11,11,0,0,0-14.93.02,10.056,10.056,0,0,0-.04,14.31,11.043,11.043,0,0,0,14.94-.02,9.607,9.607,0,0,0,3.01-7.15h0Zm-14.09,3.77a5.393,5.393,0,0,1-1.42-3.77,5.5,5.5,0,0,1,1.37-3.81,4.647,4.647,0,0,1,3.64-1.53,4.708,4.708,0,0,1,3.66,1.57,5.419,5.419,0,0,1,1.43,3.77,5.516,5.516,0,0,1-1.37,3.81A5.085,5.085,0,0,1,2683.58,4376.16Zm25.7,11.64v-8.3a7.534,7.534,0,0,0,6.03,2.89,8.329,8.329,0,0,0,6.22-2.69,11.682,11.682,0,0,0-.02-14.67,8.317,8.317,0,0,0-6.2-2.71,7.162,7.162,0,0,0-6.03,3.14v-2.78h-5.48v25.12h5.48Zm-0.07-15.41a5.6,5.6,0,0,1,1.35-3.91,4.48,4.48,0,0,1,6.69,0,5.427,5.427,0,0,1,1.37,3.84,5.562,5.562,0,0,1-1.37,3.92,4.5,4.5,0,0,1-6.69,0,5.531,5.531,0,0,1-1.35-3.85h0Zm38.16,6.46-3.14-2.78a6.711,6.711,0,0,1-4.69,1.99,4.832,4.832,0,0,1-3.1-.98,4.66,4.66,0,0,1-1.62-2.81h13.45c0.05-.67.08-1.16,0.08-1.45a11.649,11.649,0,0,0-2.42-7.47,8.431,8.431,0,0,0-7-3.03,8.931,8.931,0,0,0-6.85,2.93,10.106,10.106,0,0,0-2.71,7.14,9.717,9.717,0,0,0,2.85,7.27,9.907,9.907,0,0,0,7.25,2.8,9.621,9.621,0,0,0,7.9-3.61h0Zm-11.2-11.02a3.723,3.723,0,0,1,2.76-1.1,3.654,3.654,0,0,1,2.76,1.11,5.263,5.263,0,0,1,1.32,3h-8.26A5.383,5.383,0,0,1,2736.17,4367.83Zm32.05,13.73a11.738,11.738,0,0,0,3.39-2.64l-3.21-3.24a6.446,6.446,0,0,1-4.44,2.05,4.516,4.516,0,0,1-3.55-1.53,5.549,5.549,0,0,1-1.35-3.81,5.621,5.621,0,0,1,1.33-3.79,4.258,4.258,0,0,1,3.36-1.55,6.433,6.433,0,0,1,4.51,1.91l3.21-3.24a10.182,10.182,0,1,0-14.95,13.82,9.649,9.649,0,0,0,7.19,2.92A10.063,10.063,0,0,0,2768.22,4381.56Zm7.21-18.88v4.7h5.74v14.65h5.55v-14.65h5.74v-4.7h-17.03Zm32.79,17.25v2.1h5.3V4370.8c0-2.71-.69-4.77-2.09-6.17q-2.16-2.16-6.53-2.16a18.551,18.551,0,0,0-7.5,1.55l1.37,4.19a15.494,15.494,0,0,1,5.34-1.05q4.155,0,4.15,3.54v0.32a14.447,14.447,0,0,0-4.73-.79,9.354,9.354,0,0,0-5.68,1.55,6.08,6.08,0,0,0-.21,9.02,7.11,7.11,0,0,0,4.74,1.59,7.438,7.438,0,0,0,5.84-2.46h0Zm-6.35-1.96a2.06,2.06,0,0,1-.83-1.72,2.334,2.334,0,0,1,1-2.04,4.831,4.831,0,0,1,2.79-.7,8.2,8.2,0,0,1,3.5.72v0.98a2.988,2.988,0,0,1-1.19,2.43,4.784,4.784,0,0,1-3.1.96A3.514,3.514,0,0,1,2801.87,4377.97Z" transform="translate(-2586.09 -4355.78)"/>
</svg>
