<svg id="Группа_1" data-name="Группа 1" xmlns="http://www.w3.org/2000/svg" width="117.87" height="31.1" viewBox="0 0 117.87 31.1">
  <defs>
    <style>
      .cls-1 {
        fill: #fefefe;
      }

      .cls-1, .cls-2 {
        fill-rule: evenodd;
      }

      .cls-2 {
        fill: #40c7a1;
      }
    </style>
  </defs>
  <path id="TR" class="cls-1" d="M2290.1,4382.03v-20.14h7.68v-5.12h-20.92v5.12h7.68v20.14h5.56Zm19.66,0v-8.09h4.29l5.48,8.09h6.49l-6.16-9.02a7.7,7.7,0,0,0,5.41-7.84,7.863,7.863,0,0,0-2.17-5.84c-1.7-1.71-4.16-2.56-7.36-2.56H2304.2v25.26h5.56Zm0-20.25h5.52a5.046,5.046,0,0,1,3.21.92,3.24,3.24,0,0,1,1.15,2.69,3.345,3.345,0,0,1-1.12,2.65,4.52,4.52,0,0,1-3.14,1h-5.62v-7.26Z" transform="translate(-2276.88 -4356.78)"/>
  <path id="_get" data-name="    get" class="cls-2" d="M2350.02,4385.28q2.445-2.46,2.45-7.62v-14.98h-5.48v2.53a8.211,8.211,0,0,0-6.24-2.89,8.427,8.427,0,0,0-6.06,2.44,8.7,8.7,0,0,0-2.53,6.59,8.88,8.88,0,0,0,2.51,6.64,8.392,8.392,0,0,0,6.08,2.45,7.477,7.477,0,0,0,3.55-.78,9.161,9.161,0,0,0,2.76-2.36v0.94q0,5.265-5.52,5.27a13.112,13.112,0,0,1-6.53-1.77l-1.87,4.11a17.916,17.916,0,0,0,8.54,2.02c3.83,0,6.6-.86,8.34-2.59h0Zm-12.38-13.86a4.34,4.34,0,0,1,1.34-3.29,4.694,4.694,0,0,1,3.35-1.26,4.784,4.784,0,0,1,3.38,1.26,4.235,4.235,0,0,1,1.35,3.22,4.29,4.29,0,0,1-1.35,3.28,4.784,4.784,0,0,1-3.38,1.26,4.723,4.723,0,0,1-3.35-1.24,4.224,4.224,0,0,1-1.34-3.23h0Zm38.96,7.43-3.14-2.78a6.711,6.711,0,0,1-4.69,1.99,4.832,4.832,0,0,1-3.1-.98,4.66,4.66,0,0,1-1.62-2.81h13.45c0.05-.67.07-1.16,0.07-1.45a11.643,11.643,0,0,0-2.41-7.47,8.431,8.431,0,0,0-7-3.03,8.916,8.916,0,0,0-6.85,2.93,10.106,10.106,0,0,0-2.71,7.14,9.717,9.717,0,0,0,2.85,7.27,9.907,9.907,0,0,0,7.25,2.8,9.621,9.621,0,0,0,7.9-3.61h0Zm-11.2-11.02a3.707,3.707,0,0,1,2.76-1.1,3.654,3.654,0,0,1,2.76,1.11,5.191,5.191,0,0,1,1.31,3h-8.26A5.457,5.457,0,0,1,2365.4,4367.83Zm29.27,13.4v-4.4a5.545,5.545,0,0,1-2.71.69,1.613,1.613,0,0,1-1.76-1.88v-8.26h4.54v-4.7h-4.54v-4.94h-5.49v4.94h-2.3v4.7h2.3v9.16c0,2.12.49,3.62,1.47,4.49a5.986,5.986,0,0,0,4.16,1.32,8.241,8.241,0,0,0,4.33-1.12h0Z" transform="translate(-2276.88 -4356.78)"/>
</svg>
