<svg xmlns="http://www.w3.org/2000/svg" width="78.78" height="26.13" viewBox="0 0 78.78 26.13">
  <defs>
    <style>
      .cls-1 {
        fill: #fefefe;
        fill-rule: evenodd;
      }
    </style>
  </defs>
  <path id="V60" class="cls-1" d="M2291.61,4544.21l10.21-25.44h-5.99l-6.6,17.79-6.6-17.79h-6.13l10.21,25.44h4.9Zm32.36-2.2a8.048,8.048,0,0,0,2.74-6.28,7.446,7.446,0,0,0-2.49-5.99,9.475,9.475,0,0,0-6.38-2.13,9.291,9.291,0,0,0-5.23,1.62,8.011,8.011,0,0,1,1.57-4.24,4.233,4.233,0,0,1,3.51-1.6,6.741,6.741,0,0,1,2.65.48,12.163,12.163,0,0,1,2.51,1.54l2.92-4.3a12.369,12.369,0,0,0-7.9-2.78q-5.445,0-8.26,3.83a16.436,16.436,0,0,0-2.81,9.96q0,6.645,2.99,9.63a9.848,9.848,0,0,0,7.29,2.71A9.985,9.985,0,0,0,2323.97,4542.01Zm-11.51-6.07a3.4,3.4,0,0,1,1.16-2.7,4.607,4.607,0,0,1,3.17-1.01,4.708,4.708,0,0,1,3.21,1.03,3.332,3.332,0,0,1,1.19,2.65,3.521,3.521,0,0,1-1.15,2.74,4.552,4.552,0,0,1-3.18,1.05,4.661,4.661,0,0,1-3.21-1.07,3.456,3.456,0,0,1-1.19-2.69h0Zm42.82-4.54a14.041,14.041,0,0,0-3.12-9.35,10.638,10.638,0,0,0-16.18.02,15.525,15.525,0,0,0-.04,18.67,10.669,10.669,0,0,0,16.2-.01,14.02,14.02,0,0,0,3.14-9.33h0Zm-16.74,0a10.225,10.225,0,0,1,1.52-5.8,4.591,4.591,0,0,1,3.96-2.25,4.67,4.67,0,0,1,4.01,2.29,10.1,10.1,0,0,1,1.55,5.76,10.267,10.267,0,0,1-1.5,5.79,4.588,4.588,0,0,1-3.98,2.25,4.668,4.668,0,0,1-4.03-2.27,10.135,10.135,0,0,1-1.53-5.77h0Z" transform="translate(-2276.5 -4518.34)"/>
</svg>
