<svg width="214" height="22" viewBox="0 0 214 22" fill="none" xmlns="http://www.w3.org/2000/svg"><path d="M0 0h214v22H0z"/><path d="M37.878.367V15.57h-4.269V4.664h-8.901V15.57h-4.269V.367h17.439zm9.568 0v9.688L57.013.367h4.269V15.57h-4.269V5.943l-9.567 9.627h-4.268V.367h4.268zM81.72 15.57H68.126l-.157 4.022h-3.962l-.242-8.074h1.968c2.09-2.254 3.513-5.48 3.513-11.151H82.9v11.151h3.148l-.241 8.074H81.87l-.151-4.022zm-3.087-4.052v-6.85h-5.601c-.152 2.894-1.243 5.605-2.363 6.85h7.964zm45.99 4.052h-16.656V.367h4.27v10.908h8.902V.367h4.268v10.908h3.154l-.242 8.317h-3.545l-.151-4.022zm20.801-9.11c-.636-1.767-2.847-2.68-5.359-2.68s-4.815.913-5.36 2.68h10.719zM158.049.367v5.455h9.749V.367h4.268V15.57h-4.268v-5.453h-9.749v5.453h-4.271V.367h4.271zm33.061 4.297h-5.722V15.57h-4.482V4.664h-5.691V.367h15.895v4.297zm-98.4 7.86c0 .704.209 1.394.598 1.98a3.537 3.537 0 0 0 1.59 1.312 3.522 3.522 0 0 0 3.86-.772 3.585 3.585 0 0 0 .768-3.884 3.56 3.56 0 0 0-1.306-1.6 3.526 3.526 0 0 0-1.967-.6 3.553 3.553 0 0 0-2.498 1.05 3.598 3.598 0 0 0-1.044 2.514zm41.964-3.354c.757 1.982 3.33 2.865 6.751 2.865 3.724 0 6.662-1.098 8.025-2.012v3.657c-.757.856-3.754 2.284-8.6 2.284-5.446 0-10.566-2.59-10.566-7.981 0-5.181 4.512-7.983 9.659-7.983 5.661 0 10.414 3.626 9.531 9.17h-14.8zM.002 7.985c0-5.21 4.694-7.983 9.871-7.983 3.786 0 6.269 1.432 7.026 2.437v3.747c-1.244-.943-3.332-2.154-6.845-2.154-2.724 0-5.632 1.22-5.632 3.961 0 2.742 2.907 3.952 5.632 3.952 3.513 0 5.6-1.218 6.843-2.164v3.748c-.757 1.005-3.233 2.437-7.025 2.437C4.696 15.966 0 13.195 0 7.985h.002zm213.998 0c0 5.21-4.361 7.981-9.531 7.981-2.723 0-4.844-.731-5.812-1.401V22h-4.4V.367h4.27v1.25c.999-.762 3.208-1.615 5.933-1.615 5.178 0 9.531 2.773 9.531 7.983H214zm-10.234 4.081c2.723 0 5.814-1.28 5.814-4.021 0-2.742-3.089-4.013-5.814-4.013-2.271 0-4.207.64-5.237 1.462v5.14c.938.853 2.966 1.432 5.237 1.432z" fill="#000006"/></svg>