<svg id="Logo" xmlns="http://www.w3.org/2000/svg" xmlns:xlink="http://www.w3.org/1999/xlink" width="1167" height="323.688" viewBox="0 0 1167 323.688">
  <metadata><?xpacket begin="﻿" id="W5M0MpCehiHzreSzNTczkc9d"?>
<x:xmpmeta xmlns:x="adobe:ns:meta/" x:xmptk="Adobe XMP Core 5.6-c138 79.159824, 2016/09/14-01:09:01        ">
   <rdf:RDF xmlns:rdf="http://www.w3.org/1999/02/22-rdf-syntax-ns#">
      <rdf:Description rdf:about=""/>
   </rdf:RDF>
</x:xmpmeta>
                                                                                                    
                                                                                                    
                                                                                                    
                                                                                                    
                                                                                                    
                                                                                                    
                                                                                                    
                                                                                                    
                                                                                                    
                                                                                                    
                                                                                                    
                                                                                                    
                                                                                                    
                                                                                                    
                                                                                                    
                                                                                                    
                                                                                                    
                                                                                                    
                                                                                                    
                                                                                                    
                           
<?xpacket end="w"?></metadata>
<defs>
    <style>
      .cls-1, .cls-2, .cls-3, .cls-5 {
        fill-rule: evenodd;
      }

      .cls-1 {
        opacity: 0.28;
      }

      .cls-3 {
        fill: #252525;
      }

      .cls-4 {
        filter: url(#filter);
      }

      .cls-5 {
        fill: #ffba00;
      }
    </style>
    <filter id="filter" filterUnits="userSpaceOnUse">
      <feFlood result="flood" flood-color="#60d457"/>
      <feComposite result="composite" operator="in" in2="SourceGraphic"/>
      <feBlend result="blend" in2="SourceGraphic"/>
    </filter>
  </defs>
  <g id="Cat">
    <path id="Фигура_1_копия" data-name="Фигура 1 копия" class="cls-1" d="M48,520L356.009,212.007V520H48Z" transform="translate(-48 -197.5)"/>
    <g id="Группа_2" data-name="Группа 2">
      <path id="Фигура_3" data-name="Фигура 3" class="cls-2" d="M175.989,247.975v-48l48,48h-48Z" transform="translate(-48 -197.5)"/>
      <path id="Фигура_4" data-name="Фигура 4" class="cls-2" d="M319.977,247.975l48-48v48H319.977Z" transform="translate(-48 -197.5)"/>
      <path id="Фигура_2" data-name="Фигура 2" class="cls-3" d="M367.972,247.975H175.989L367.972,439.993V247.975Z" transform="translate(-48 -197.5)"/>
      <g id="Группа_1" data-name="Группа 1" class="cls-4">
        <path id="Фигура_3_копия" data-name="Фигура 3 копия" class="cls-5" d="M255.982,263.977v32l-32-32h32Z" transform="translate(-48 -197.5)"/>
        <path id="Фигура_3_копия_2" data-name="Фигура 3 копия 2" class="cls-5" d="M287.979,263.977v32l32-32h-32Z" transform="translate(-48 -197.5)"/>
      </g>
    </g>
    <path id="Фигура_1" data-name="Фигура 1" class="cls-2" d="M96,520L367.972,247.975V520H96Z" transform="translate(-48 -197.5)"/>
    <path id="Фигура_5" data-name="Фигура 5" class="cls-2" d="M412.941,474.686H367.686v45.255Z" transform="translate(-48 -197.5)"/>
  </g>
  <g id="TEXT">
    <path id="CATSY" class="cls-2" d="M522.094,347.172q20.851,0,37.2-7.36a69.05,69.05,0,0,0,26.983-21.264l-30.458-27.193q-13.291,16.767-31.277,16.766-15.13,0-24.326-9.712t-9.2-26.069q0-16.354,9.2-26.068t24.326-9.712q17.986,0,31.277,16.766l30.458-27.193A69.077,69.077,0,0,0,559.3,204.869q-16.357-7.361-37.2-7.36-22.691,0-40.884,9.507a71.046,71.046,0,0,0-28.517,26.58q-10.324,17.073-10.324,38.744t10.324,38.745a71.025,71.025,0,0,0,28.517,26.58q18.192,9.507,40.884,9.507h0ZM717.52,343.9H767.4L704.846,200.78H657.42L594.867,343.9h49.061l9.608-24.944h54.376Zm-50.7-59.7,13.9-35.985,13.9,35.985h-27.8Zm140.438,59.7h48.244V238.2h41.906V200.78H765.355V238.2h41.906V343.9Zm172.326,3.271q21.463,0,36.493-6.44t22.58-17.379a41.927,41.927,0,0,0,7.57-24.433q0-15.536-8.28-24.535a48.057,48.057,0,0,0-19.52-12.983,187.382,187.382,0,0,0-27.6-7.054q-12.677-2.454-18.193-4.6t-5.52-6.441q0-8.994,18.6-9,18.8,0,39.86,10.632l14.52-34.962a90.841,90.841,0,0,0-25.05-9.3,132.455,132.455,0,0,0-28.922-3.169q-21.464,0-36.489,6.338T927.05,221.226a42.442,42.442,0,0,0-7.563,24.535q0,15.54,8.177,24.637a47,47,0,0,0,19.215,13.085,209.644,209.644,0,0,0,27.6,7.463q12.879,2.659,18.5,4.907T998.6,302.6q0,3.886-4.293,5.827T980,310.37a89.441,89.441,0,0,1-24.326-3.578,98.84,98.84,0,0,1-22.9-9.508l-15.536,35.167q10.833,6.747,27.7,10.734a150.1,150.1,0,0,0,34.65,3.987h0ZM1212.83,200.78h-46.61l-29.43,49.479-29.24-49.479h-50.9l53.97,90.575V343.9h48.24V291.968Z" transform="translate(-48 -197.5)"/>
    <path id="PHOTO" class="cls-2" d="M510.984,374.8h-68.89V517.917h48.243V482.75h20.647q19.826,0,34.547-6.543t22.691-18.81q7.973-12.267,7.973-28.624t-7.973-28.624q-7.972-12.268-22.691-18.81T510.984,374.8h0Zm-3.066,70.742H490.337V412.007h17.581q9.811,0,14.718,4.4t4.906,12.37q0,7.974-4.906,12.37t-14.718,4.4h0ZM684.743,374.8V425.5H640.179V374.8H591.935V517.917h48.244V465.166h44.564v52.751h48.243V374.8H684.743ZM831.31,521.188q23.1,0,41.5-9.61A72.155,72.155,0,0,0,901.631,484.9q10.427-17.07,10.426-38.541t-10.426-38.54a72.206,72.206,0,0,0-28.823-26.682q-18.4-9.608-41.5-9.609t-41.5,9.609a72.209,72.209,0,0,0-28.824,26.682q-10.425,17.075-10.425,38.54T760.989,484.9a72.158,72.158,0,0,0,28.824,26.681q18.4,9.609,41.5,9.61h0Zm0-39.052a30.727,30.727,0,0,1-16.251-4.4,31.451,31.451,0,0,1-11.55-12.472,43.805,43.805,0,0,1,0-37.825,31.49,31.49,0,0,1,11.55-12.472,32.238,32.238,0,0,1,32.5,0,31.512,31.512,0,0,1,11.55,12.472,43.805,43.805,0,0,1,0,37.825,31.472,31.472,0,0,1-11.55,12.472,30.743,30.743,0,0,1-16.252,4.4h0Zm127.355,35.781h48.245V412.212h41.9V374.8H916.758v37.416h41.907V517.917Zm175.6,3.271q23.1,0,41.5-9.61a72.114,72.114,0,0,0,28.82-26.681q10.425-17.07,10.43-38.541t-10.43-38.54a72.166,72.166,0,0,0-28.82-26.682q-18.4-9.608-41.5-9.609t-41.5,9.609a72.231,72.231,0,0,0-28.82,26.682q-10.425,17.075-10.42,38.54t10.42,38.541a72.179,72.179,0,0,0,28.82,26.681q18.4,9.609,41.5,9.61h0Zm0-39.052a30.729,30.729,0,0,1-16.25-4.4,31.429,31.429,0,0,1-11.55-12.472,43.833,43.833,0,0,1,0-37.825,31.469,31.469,0,0,1,11.55-12.472,32.232,32.232,0,0,1,32.5,0,31.469,31.469,0,0,1,11.55,12.472,43.741,43.741,0,0,1,0,37.825,31.429,31.429,0,0,1-11.55,12.472,30.729,30.729,0,0,1-16.25,4.4h0Z" transform="translate(-48 -197.5)"/>
  </g>
</svg>
