<svg id="Logo" xmlns="http://www.w3.org/2000/svg" xmlns:xlink="http://www.w3.org/1999/xlink" width="1167" height="323.69" viewBox="0 0 1167 323.69">
  <metadata><?xpacket begin="﻿" id="W5M0MpCehiHzreSzNTczkc9d"?>
<x:xmpmeta xmlns:x="adobe:ns:meta/" x:xmptk="Adobe XMP Core 5.6-c138 79.159824, 2016/09/14-01:09:01        ">
   <rdf:RDF xmlns:rdf="http://www.w3.org/1999/02/22-rdf-syntax-ns#">
      <rdf:Description rdf:about=""/>
   </rdf:RDF>
</x:xmpmeta>
                                                                                                    
                                                                                                    
                                                                                                    
                                                                                                    
                                                                                                    
                                                                                                    
                                                                                                    
                                                                                                    
                                                                                                    
                                                                                                    
                                                                                                    
                                                                                                    
                                                                                                    
                                                                                                    
                                                                                                    
                                                                                                    
                                                                                                    
                                                                                                    
                                                                                                    
                                                                                                    
                           
<?xpacket end="w"?></metadata>
<defs>
    <style>
      .cls-1, .cls-2, .cls-6 {
        fill: #fff;
      }

      .cls-1, .cls-2, .cls-3, .cls-5, .cls-6 {
        fill-rule: evenodd;
      }

      .cls-1 {
        opacity: 0.28;
      }

      .cls-3 {
        fill: #d9d9d9;
      }

      .cls-4 {
        filter: url(#filter);
      }

      .cls-5 {
        fill: #ffba00;
      }

      .cls-6 {
        opacity: 0.72;
      }
    </style>
    <filter id="filter" filterUnits="userSpaceOnUse">
      <feFlood result="flood" flood-color="#d45757"/>
      <feComposite result="composite" operator="in" in2="SourceGraphic"/>
      <feBlend result="blend" in2="SourceGraphic"/>
    </filter>
  </defs>
  <g id="Cat">
    <path id="Фигура_1_копия" data-name="Фигура 1 копия" class="cls-1" d="M48,1240L356.009,932.007V1240H48Z" transform="translate(-48 -917.5)"/>
    <g id="Группа_2" data-name="Группа 2">
      <path id="Фигура_3" data-name="Фигура 3" class="cls-2" d="M175.989,967.975v-48l48,48h-48Z" transform="translate(-48 -917.5)"/>
      <path id="Фигура_4" data-name="Фигура 4" class="cls-2" d="M319.977,967.975l48-48v48H319.977Z" transform="translate(-48 -917.5)"/>
      <path id="Фигура_2" data-name="Фигура 2" class="cls-3" d="M367.972,967.975H175.989L367.972,1159.99V967.975Z" transform="translate(-48 -917.5)"/>
      <g id="Группа_1" data-name="Группа 1" class="cls-4">
        <path id="Фигура_3_копия" data-name="Фигура 3 копия" class="cls-5" d="M255.982,983.977v32l-32-32h32Z" transform="translate(-48 -917.5)"/>
        <path id="Фигура_3_копия_2" data-name="Фигура 3 копия 2" class="cls-5" d="M287.979,983.977v32l32-32h-32Z" transform="translate(-48 -917.5)"/>
      </g>
    </g>
    <path id="Фигура_1" data-name="Фигура 1" class="cls-2" d="M96,1240L367.972,967.975V1240H96Z" transform="translate(-48 -917.5)"/>
    <path id="Фигура_5" data-name="Фигура 5" class="cls-6" d="M412.941,1194.69H367.686v45.25Z" transform="translate(-48 -917.5)"/>
  </g>
  <g id="TEXT">
    <path id="CATSY" class="cls-2" d="M522.094,1067.17q20.851,0,37.2-7.36a69.076,69.076,0,0,0,26.983-21.26l-30.458-27.19q-13.291,16.755-31.277,16.76-15.13,0-24.326-9.71t-9.2-26.07q0-16.355,9.2-26.068t24.326-9.712q17.986,0,31.277,16.766l30.458-27.193A69.077,69.077,0,0,0,559.3,924.869q-16.357-7.361-37.2-7.36-22.691,0-40.884,9.507a71.046,71.046,0,0,0-28.517,26.58q-10.324,17.073-10.324,38.744t10.324,38.75a70.967,70.967,0,0,0,28.517,26.57q18.192,9.51,40.884,9.51h0Zm195.426-3.27H767.4L704.846,920.78H657.42L594.867,1063.9h49.061l9.608-24.94h54.376Zm-50.7-59.7,13.9-35.986,13.9,35.986h-27.8Zm140.438,59.7h48.244V958.2h41.906V920.78H765.355V958.2h41.906v105.7Zm172.326,3.27q21.463,0,36.493-6.44t22.58-17.38a41.908,41.908,0,0,0,7.57-24.43q0-15.54-8.28-24.535a48.057,48.057,0,0,0-19.52-12.983,187.382,187.382,0,0,0-27.6-7.054q-12.677-2.454-18.193-4.6t-5.52-6.441q0-8.994,18.6-9,18.8,0,39.86,10.632l14.52-34.962a90.841,90.841,0,0,0-25.05-9.3,132.455,132.455,0,0,0-28.922-3.169q-21.464,0-36.489,6.338T927.05,941.226a42.442,42.442,0,0,0-7.563,24.535q0,15.54,8.177,24.637a46.917,46.917,0,0,0,19.215,13.082,209.852,209.852,0,0,0,27.6,7.47q12.879,2.655,18.5,4.9t5.621,6.75q0,3.885-4.293,5.83T980,1030.37a89.292,89.292,0,0,1-24.326-3.58,98.453,98.453,0,0,1-22.9-9.51l-15.536,35.17q10.833,6.75,27.7,10.74a150.534,150.534,0,0,0,34.65,3.98h0ZM1212.83,920.78h-46.61l-29.43,49.479-29.24-49.479h-50.9l53.97,90.58v52.54h48.24v-51.93Z" transform="translate(-48 -917.5)"/>
    <path id="PHOTO" class="cls-2" d="M510.984,1094.8h-68.89v143.12h48.243v-35.17h20.647q19.826,0,34.547-6.54t22.691-18.81q7.973-12.27,7.973-28.63t-7.973-28.62q-7.972-12.27-22.691-18.81t-34.547-6.54h0Zm-3.066,70.74H490.337v-33.53h17.581q9.811,0,14.718,4.39,4.907,4.41,4.906,12.37,0,7.98-4.906,12.37-4.906,4.41-14.718,4.4h0Zm176.825-70.74v50.7H640.179v-50.7H591.935v143.12h48.244v-52.75h44.564v52.75h48.243V1094.8H684.743ZM831.31,1241.19q23.1,0,41.5-9.61a72.2,72.2,0,0,0,28.823-26.68q10.427-17.07,10.426-38.54t-10.426-38.54a72.225,72.225,0,0,0-28.823-26.69q-18.4-9.6-41.5-9.61t-41.5,9.61a72.228,72.228,0,0,0-28.824,26.69q-10.425,17.07-10.425,38.54t10.425,38.54a72.2,72.2,0,0,0,28.824,26.68q18.4,9.6,41.5,9.61h0Zm0-39.05a30.749,30.749,0,0,1-16.251-4.4,31.485,31.485,0,0,1-11.55-12.47,43.816,43.816,0,0,1,0-37.83,31.485,31.485,0,0,1,11.55-12.47,32.276,32.276,0,0,1,32.5,0,31.506,31.506,0,0,1,11.55,12.47,43.816,43.816,0,0,1,0,37.83,31.506,31.506,0,0,1-11.55,12.47,30.765,30.765,0,0,1-16.252,4.4h0Zm127.355,35.78h48.245V1132.21h41.9V1094.8H916.758v37.41h41.907v105.71Zm175.6,3.27q23.1,0,41.5-9.61a72.161,72.161,0,0,0,28.82-26.68q10.425-17.07,10.43-38.54t-10.43-38.54a72.184,72.184,0,0,0-28.82-26.69q-18.4-9.6-41.5-9.61t-41.5,9.61a72.25,72.25,0,0,0-28.82,26.69q-10.425,17.07-10.42,38.54t10.42,38.54a72.226,72.226,0,0,0,28.82,26.68q18.4,9.6,41.5,9.61h0Zm0-39.05a30.75,30.75,0,0,1-16.25-4.4,31.464,31.464,0,0,1-11.55-12.47,43.844,43.844,0,0,1,0-37.83,31.464,31.464,0,0,1,11.55-12.47,32.27,32.27,0,0,1,32.5,0,31.464,31.464,0,0,1,11.55,12.47,43.752,43.752,0,0,1,0,37.83,31.464,31.464,0,0,1-11.55,12.47,30.75,30.75,0,0,1-16.25,4.4h0Z" transform="translate(-48 -917.5)"/>
  </g>
</svg>
