<svg id="Logo" xmlns="http://www.w3.org/2000/svg" xmlns:xlink="http://www.w3.org/1999/xlink" width="1026" height="1335" viewBox="0 0 1026 1335">
  <metadata><?xpacket begin="﻿" id="W5M0MpCehiHzreSzNTczkc9d"?>
<x:xmpmeta xmlns:x="adobe:ns:meta/" x:xmptk="Adobe XMP Core 5.6-c138 79.159824, 2016/09/14-01:09:01        ">
   <rdf:RDF xmlns:rdf="http://www.w3.org/1999/02/22-rdf-syntax-ns#">
      <rdf:Description rdf:about=""/>
   </rdf:RDF>
</x:xmpmeta>
                                                                                                    
                                                                                                    
                                                                                                    
                                                                                                    
                                                                                                    
                                                                                                    
                                                                                                    
                                                                                                    
                                                                                                    
                                                                                                    
                                                                                                    
                                                                                                    
                                                                                                    
                                                                                                    
                                                                                                    
                                                                                                    
                                                                                                    
                                                                                                    
                                                                                                    
                                                                                                    
                           
<?xpacket end="w"?></metadata>
<defs>
    <style>
      .cls-1, .cls-2, .cls-6 {
        fill: #fff;
      }

      .cls-1, .cls-2, .cls-3, .cls-5, .cls-6, .cls-8 {
        fill-rule: evenodd;
      }

      .cls-1 {
        opacity: 0.28;
      }

      .cls-3 {
        fill: #d9d9d9;
      }

      .cls-4 {
        filter: url(#filter);
      }

      .cls-5 {
        fill: #ffba00;
      }

      .cls-6 {
        opacity: 0.72;
      }

      .cls-7 {
        filter: url(#filter-2);
      }
    </style>
    <filter id="filter" filterUnits="userSpaceOnUse">
      <feFlood result="flood" flood-color="#65549e"/>
      <feComposite result="composite" operator="in" in2="SourceGraphic"/>
      <feBlend result="blend" in2="SourceGraphic"/>
    </filter>
    <filter id="filter-2" filterUnits="userSpaceOnUse">
      <feOffset result="offset" dy="8" in="SourceAlpha"/>
      <feGaussianBlur result="blur" stdDeviation="3"/>
      <feFlood result="flood" flood-opacity="0.08"/>
      <feComposite result="composite" operator="in" in2="blur"/>
      <feBlend result="blend" in="SourceGraphic"/>
      <feFlood result="flood-2" flood-color="#fff"/>
      <feComposite result="composite-2" operator="in" in2="SourceGraphic"/>
      <feBlend result="blend-2" in2="blend"/>
    </filter>
  </defs>
  <g id="Cat">
    <path id="Фигура_1_копия" data-name="Фигура 1 копия" class="cls-1" d="M128,899L993.948,33.818V899H128Z" transform="translate(-128)"/>
    <g id="Группа_2" data-name="Группа 2">
      <path id="Фигура_3" data-name="Фигура 3" class="cls-2" d="M487.833,134.855V0.006L622.771,134.855H487.833Z" transform="translate(-128)"/>
      <path id="Фигура_4" data-name="Фигура 4" class="cls-2" d="M892.646,134.855L1027.58,0.006V134.855H892.646Z" transform="translate(-128)"/>
      <path id="Фигура_2" data-name="Фигура 2" class="cls-3" d="M1027.58,134.855H487.833l539.747,539.4v-539.4Z" transform="translate(-128)"/>
      <g id="Группа_1" data-name="Группа 1" class="cls-4">
        <path id="Фигура_3_копия" data-name="Фигура 3 копия" class="cls-5" d="M712.729,179.805v89.9l-89.958-89.9h89.958Z" transform="translate(-128)"/>
        <path id="Фигура_3_копия_2" data-name="Фигура 3 копия 2" class="cls-5" d="M802.687,179.805v89.9l89.959-89.9H802.687Z" transform="translate(-128)"/>
      </g>
    </g>
    <path id="Фигура_1" data-name="Фигура 1" class="cls-2" d="M262.937,899L1027.58,134.855V899H262.937Z" transform="translate(-128)"/>
    <path id="Фигура_5" data-name="Фигура 5" class="cls-6" d="M1154.01,771.709H1026.78V898.835Z" transform="translate(-128)"/>
  </g>
  <g id="TEXT" class="cls-7">
    <path id="CATSY" class="cls-8" d="M221.162,1132.31q24.28,0,43.323-8.57a80.449,80.449,0,0,0,31.42-24.77l-35.467-31.67q-15.475,19.53-36.419,19.52-17.619,0-28.326-11.31t-10.712-30.36q0-19.05,10.712-30.37t28.326-11.31q20.943,0,36.419,19.53L295.9,991.325a80.444,80.444,0,0,0-31.42-24.768q-19.047-8.574-43.323-8.574-26.421,0-47.606,11.074a82.741,82.741,0,0,0-33.206,30.963q-12.022,19.89-12.021,45.13t12.021,45.13a82.693,82.693,0,0,0,33.206,30.96q21.183,11.07,47.606,11.07h0Zm227.559-3.81H506.8L433.963,961.793H378.739L305.9,1128.5h57.128l11.188-29.05h63.317Zm-59.032-69.54,16.186-41.91,16.187,41.91H389.689Zm168.293,69.54h56.176V1005.38h48.8V961.793H509.185v43.587h48.8V1128.5Zm195.9,3.81q24.993,0,42.489-7.5t26.3-20.24a48.917,48.917,0,0,0,8.808-28.46q0-18.1-9.641-28.58a55.806,55.806,0,0,0-22.732-15.12,217.1,217.1,0,0,0-32.135-8.22q-14.762-2.865-21.185-5.36t-6.426-7.5q0-10.47,21.661-10.48,21.9,0,46.416,12.38l16.9-40.72a105.629,105.629,0,0,0-29.159-10.836,154.335,154.335,0,0,0-33.682-3.691q-24.995,0-42.489,7.383t-26.3,20.243a49.449,49.449,0,0,0-8.807,28.581q0,18.105,9.521,28.7a54.832,54.832,0,0,0,22.375,15.24,245.319,245.319,0,0,0,32.135,8.69q15,3.09,21.542,5.72,6.545,2.61,6.546,7.85,0,4.53-5,6.79t-16.662,2.26a104.063,104.063,0,0,1-28.326-4.16,115.059,115.059,0,0,1-26.66-11.08l-18.091,40.97q12.615,7.845,32.254,12.5a175.05,175.05,0,0,0,40.347,4.64h0ZM1020.72,961.793H966.446l-34.277,57.637L898.13,961.793H838.859L901.7,1067.3v61.2h56.176v-60.49Z" transform="translate(-128)"/>
    <path id="PHOTO" class="cls-8" d="M208.226,1164.49H128.008V1331.2h56.176v-40.97h24.042q23.085,0,40.227-7.62t26.422-21.91q9.284-14.28,9.283-33.34t-9.283-33.34q-9.284-14.3-26.422-21.91t-40.227-7.62h0Zm-3.571,82.4H184.184v-39.06h20.471q11.425,0,17.138,5.12t5.713,14.41q0,9.285-5.713,14.41t-17.138,5.12h0Zm205.9-82.4v59.06H358.663v-59.06H302.487V1331.2h56.176v-61.45h51.892v61.45h56.176V1164.49H410.555Zm170.667,170.52q26.9,0,48.321-11.2a84.023,84.023,0,0,0,33.563-31.08q12.139-19.875,12.139-44.89t-12.139-44.89a84.163,84.163,0,0,0-33.563-31.08q-21.423-11.19-48.321-11.19T532.9,1171.87a84.157,84.157,0,0,0-33.563,31.08q-12.14,19.89-12.14,44.89t12.14,44.89a84.016,84.016,0,0,0,33.563,31.08q21.423,11.2,48.321,11.2h0Zm0-45.49a35.728,35.728,0,0,1-18.924-5.12,36.575,36.575,0,0,1-13.449-14.53q-5-9.4-5-22.03t5-22.03a36.613,36.613,0,0,1,13.449-14.52,37.532,37.532,0,0,1,37.848,0,36.632,36.632,0,0,1,13.448,14.52q5,9.42,5,22.03,0,12.63-5,22.03a36.594,36.594,0,0,1-13.448,14.53,35.748,35.748,0,0,1-18.924,5.12h0Zm148.294,41.68h56.176V1208.07h48.8v-43.58H680.719v43.58h48.8V1331.2Zm204.471,3.81q26.9,0,48.321-11.2a83.994,83.994,0,0,0,33.562-31.08q12.135-19.875,12.14-44.89t-12.14-44.89a84.134,84.134,0,0,0-33.562-31.08q-21.423-11.19-48.321-11.19t-48.321,11.19a84.157,84.157,0,0,0-33.563,31.08q-12.139,19.89-12.139,44.89t12.139,44.89a84.016,84.016,0,0,0,33.563,31.08q21.423,11.2,48.321,11.2h0Zm0-45.49a35.728,35.728,0,0,1-18.924-5.12,36.582,36.582,0,0,1-13.449-14.53q-5-9.4-5-22.03t5-22.03a36.62,36.62,0,0,1,13.449-14.52,37.532,37.532,0,0,1,37.848,0,36.642,36.642,0,0,1,13.449,14.52q5,9.42,5,22.03,0,12.63-5,22.03a36.6,36.6,0,0,1-13.449,14.53,35.748,35.748,0,0,1-18.924,5.12h0Z" transform="translate(-128)"/>
  </g>
</svg>
