<svg width="12" height="12" viewBox="0 0 12 12" fill="none" xmlns="http://www.w3.org/2000/svg">
<path d="M0.505492 8.6832C0.612692 8.5512 0.792692 8.5024 0.951092 8.5592C1.39509 8.7184 1.87669 8.8 2.38389 8.8C4.81029 8.8 6.78389 6.8256 6.78389 4.4C6.78389 2.94 6.06309 1.5808 4.85589 0.7632C4.71909 0.6704 4.65349 0.5032 4.69029 0.3424C4.72709 0.1816 4.85909 0.06 5.02309 0.036C5.21029 0.0088 5.39669 0 5.58389 0C8.89269 0 11.5839 2.6912 11.5839 6C11.5839 9.3088 8.89269 12 5.58389 12C3.48389 12 1.57349 10.9328 0.475093 9.1456C0.386293 9.0008 0.399092 8.816 0.505492 8.6832Z" fill="currentColor"/>
</svg>
