<?xml version="1.0" encoding="utf-8"?>
<!-- Generator: Adobe Illustrator 19.2.1, SVG Export Plug-In . SVG Version: 6.00 Build 0)  -->
<svg version="1.1" id="Слой_1" xmlns="http://www.w3.org/2000/svg" xmlns:xlink="http://www.w3.org/1999/xlink" x="0px" y="0px"
	 width="329.5px" height="137.4px" viewBox="0 0 329.5 137.4" style="enable-background:new 0 0 329.5 137.4;" xml:space="preserve"
	>
<style type="text/css">
	.st0{enable-background:new    ;}
	.st1{fill:#FFFFFF;}
	.st2{fill:#40C7A1;}
</style>
<g>
	<g class="st0">
		<path class="st1" d="M8.4,7h15.4v27.7h28.4V7h15.4v70H52.2V48.9H23.8V77H8.4V7z"/>
	</g>
	<g class="st0">
		<path class="st1" d="M118.4,6.5h14.2l30,70.5h-16.1l-6.4-15.7h-29.6L104.1,77H88.4L118.4,6.5z M134.6,47.7L125.3,25L116,47.7
			H134.6z"/>
	</g>
	<g class="st0">
		<path class="st1" d="M175.8,42c0-19.9,15.7-36.2,37.3-36.2s37.1,16.1,37.1,36.2c0,19.9-15.7,36.2-37.3,36.2S175.8,62.1,175.8,42z
			 M234.1,42c0-12-8.8-22-21.2-22s-21,9.8-21,22c0,12,8.8,22,21.2,22C225.5,64,234.1,54.2,234.1,42z"/>
	</g>
	<g class="st0">
		<path class="st1" d="M268.6,66.8l9.1-10.9c6.3,5.2,12.9,8.5,20.9,8.5c6.3,0,10.1-2.5,10.1-6.8c0-3.9-2.4-5.9-14.1-8.9
			c-14.1-3.6-23.2-7.5-23.2-21.6c0-12.7,10.2-21.1,24.5-21.1c10.2,0,18.9,3.2,26,8.9l-8,11.6c-6.2-4.3-12.3-6.9-18.2-6.9
			c-5.9,0-9,2.7-9,6.3c0,4.6,3,6.1,15.1,9.2C316,38.8,324,43.9,324,56.3c0,13.9-10.6,21.7-25.7,21.7C287.7,78,277,74.3,268.6,66.8z"
			/>
	</g>
	<g class="st0">
		<path class="st2" d="M179.3,123.8h-3.6v-6h4.6l1.2-7h-4.1v-6h5.2l1.2-6.9h6.2l-1.2,6.9h6.8l1.2-6.9h6.2l-1.2,6.9h3.6v6h-4.6
			l-1.2,7h4.1v6h-5.2l-1.2,7h-6.2l1.2-7h-6.8l-1.2,7h-6.2L179.3,123.8z M193.4,117.8l1.2-7h-6.8l-1.2,7H193.4z"/>
		<path class="st2" d="M213.9,98h12.8c10.3,0,17.5,7.1,17.5,16.4c0,9.3-7.1,16.4-17.5,16.4h-12.8V98z M226.7,124.3
			c5.9,0,9.9-4,9.9-9.9c0-5.8-4-9.9-9.9-9.9h-5.6v19.8H226.7z"/>
		<path class="st2" d="M253.6,98h24.8v6.4h-17.6v6.7h15.5v6.4h-15.5v6.9h17.9v6.4h-25V98z"/>
		<path class="st2" d="M285.3,98h8l8.6,23.2l8.6-23.2h7.8L305,131.1h-6.4L285.3,98z"/>
	</g>
</g>
</svg>
