<?xml version="1.0" encoding="utf-8"?>
<!-- Generator: Adobe Illustrator 19.2.1, SVG Export Plug-In . SVG Version: 6.00 Build 0)  -->
<svg version="1.1" id="Слой_1" xmlns="http://www.w3.org/2000/svg" xmlns:xlink="http://www.w3.org/1999/xlink" x="0px" y="0px"
	 width="228.5px" height="149px" viewBox="0 0 228.5 149" style="enable-background:new 0 0 228.5 149;" xml:space="preserve">
<style type="text/css">
	.st0{fill:#FFFFFF;}
</style>
<path class="st0" d="M21.7,10.6c-0.6,0.2-1.7,0.4-2.6,0.6c-2,0.3-3.4,1-4.3,2.3c-0.8,1.1-1.2,2.8-1.3,4h0.1c0.8-1.8,2.5-2.8,4.2-2.8
	c3,0,5.2,2.1,5.2,6c0,4-2.1,6.5-5.7,6.5c-4.3,0-5.7-4.1-5.7-8.2c0-2.8,0.6-5.1,1.9-6.8c1.2-1.7,2.9-2.5,5.3-2.9c1-0.2,2.2-0.4,3-0.7
	L21.7,10.6z M17.4,16.4c-1.3,0-2.3,0.7-2.8,1.7c-0.4,0.7-0.6,1.6-0.6,2.6c0,2,1,4.9,3.4,4.9c2.5,0,3.4-2.4,3.4-4.6
	C20.8,19,20,16.4,17.4,16.4z"/>
<path class="st0" d="M27.9,14.7v5.2c0,1.9,0,3.2-0.1,4.9l0.1,0c0.7-1.5,1.2-2.4,2-3.8l3.8-6.3h2.6V27h-2.1v-5.2c0-2,0-3,0.2-5h-0.1
	c-0.8,1.6-1.3,2.6-2,3.8c-1.2,1.9-2.5,4.2-3.8,6.4h-2.6V14.7H27.9z"/>
<path class="st0" d="M40.9,19.9h1.1c1.9,0,3.1-0.9,3.1-2c0-1.1-1-1.8-2.4-1.8c-1,0-2.1,0.3-3,0.9l-0.6-1.4c1.2-0.8,2.7-1.1,4.1-1.1
	c1.9,0,4.1,0.8,4.1,3.2c0,1.5-1.4,2.5-2.8,2.8v0.1c1.8,0.2,3.3,1.3,3.3,3.1c0,2.7-2.7,3.6-5.3,3.6c-1.4,0-2.9-0.4-4-1l0.6-1.5
	c0.9,0.5,2.1,0.8,3.2,0.8c1.8,0,3-0.9,3-2.1c0-1.6-1.7-2.1-3.6-2.1h-1.1C40.9,21.4,40.9,19.9,40.9,19.9z"/>
<path class="st0" d="M52.9,14.7v4.9h5.8v-4.9h2.2V27h-2.2v-5.5h-5.8V27h-2.2V14.7H52.9z"/>
<path class="st0" d="M65.8,21.3c0.1,3,2,4.2,4.2,4.2c1.6,0,2.6-0.3,3.4-0.6l0.4,1.6c-0.8,0.4-2.1,0.8-4.1,0.8c-3.8,0-6-2.5-6-6.2
	s2.2-6.6,5.7-6.6c4,0,5.1,3.5,5.1,5.8c0,0.5-0.1,0.8-0.1,1L65.8,21.3L65.8,21.3z M72.3,19.7c0-1.4-0.6-3.6-3.1-3.6
	c-2.3,0-3.2,2.1-3.4,3.6H72.3z"/>
<path class="st0" d="M86,26.5c-0.6,0.3-1.9,0.7-3.5,0.7c-3.7,0-6.1-2.5-6.1-6.2c0-3.8,2.6-6.5,6.6-6.5c1.3,0,2.5,0.3,3.1,0.6
	l-0.5,1.7c-0.5-0.3-1.4-0.6-2.6-0.6c-2.8,0-4.3,2.1-4.3,4.6c0,2.8,1.8,4.6,4.2,4.6c1.3,0,2.1-0.3,2.7-0.6L86,26.5z"/>
<path class="st0" d="M93.7,19.3V21h-6.2v-1.6H93.7z"/>
<path class="st0" d="M101.9,14.7v5.2c0,1.9,0,3.2-0.1,4.9l0.1,0c0.7-1.5,1.2-2.4,2-3.8l3.8-6.3h2.6V27h-2.1v-5.2c0-2,0.1-3,0.2-5
	h-0.1c-0.8,1.6-1.3,2.6-2,3.8c-1.2,1.9-2.5,4.2-3.8,6.4h-2.6V14.7H101.9z"/>
<path class="st0" d="M116,14.7v4.9h5.8v-4.9h2.2V27h-2.2v-5.5H116V27h-2.2V14.7H116z"/>
<path class="st0" d="M129.9,14.7V20h0.5l4.6-5.3h2.7l-5.3,5.5c2,0.2,3.2,1.5,4.1,3.7c0.3,0.8,0.8,2,1.3,3h-2.3
	c-0.3-0.5-0.8-1.5-1.1-2.5c-0.8-2-2-2.9-4-2.9h-0.4V27h-2.2V14.7H129.9z"/>
<path class="st0" d="M140.8,14.7l2.7,7.2c0.3,0.8,0.6,1.8,0.8,2.5h0.1c0.2-0.7,0.5-1.7,0.8-2.6l2.4-7.2h2.4l-3.3,8.7
	c-1.6,4.2-2.7,6.3-4.2,7.7c-1.1,1-2.2,1.3-2.7,1.4l-0.6-1.9c0.6-0.2,1.3-0.5,1.9-1.1c0.6-0.5,1.4-1.3,1.9-2.5
	c0.1-0.2,0.2-0.4,0.2-0.5c0-0.1-0.1-0.3-0.2-0.6l-4.5-11.3L140.8,14.7L140.8,14.7z"/>
<path class="st0" d="M161.3,10.6c-0.6,0.2-1.7,0.4-2.6,0.6c-2,0.3-3.4,1-4.3,2.3c-0.8,1.1-1.2,2.8-1.3,4h0.1
	c0.8-1.8,2.5-2.8,4.2-2.8c3,0,5.2,2.1,5.2,6c0,4-2.1,6.5-5.7,6.5c-4.3,0-5.7-4.1-5.7-8.2c0-2.8,0.6-5.1,1.9-6.8
	c1.2-1.7,2.9-2.5,5.3-2.9c1-0.2,2.2-0.4,3-0.7L161.3,10.6z M157,16.4c-1.3,0-2.3,0.7-2.8,1.7c-0.4,0.7-0.6,1.6-0.6,2.6
	c0,2,1,4.9,3.4,4.9c2.5,0,3.4-2.4,3.4-4.6C160.4,19,159.6,16.4,157,16.4z"/>
<path class="st0" d="M172.2,27l-0.2-1.5H172c-0.7,1-2,1.8-3.7,1.8c-2.5,0-3.7-1.7-3.7-3.5c0-3,2.6-4.6,7.4-4.6v-0.3
	c0-1-0.3-2.8-2.8-2.8c-1.1,0-2.3,0.4-3.2,0.9l-0.5-1.5c1-0.7,2.5-1.1,4-1.1c3.7,0,4.7,2.6,4.7,5V24c0,1.1,0.1,2.1,0.2,2.9
	C174.2,27,172.2,27,172.2,27z M171.9,20.7c-2.4,0-5.2,0.4-5.2,2.8c0,1.4,1,2.1,2.1,2.1c1.6,0,2.6-1,3-2c0.1-0.2,0.1-0.5,0.1-0.7
	V20.7z"/>
<path class="st0" d="M185.7,14.7v1.8h-3.8V27h-2.2V16.5h-3.8v-1.8L185.7,14.7L185.7,14.7z"/>
<path class="st0" d="M198.4,20.8c0,4.5-3.1,6.5-6.1,6.5c-3.3,0-5.9-2.4-5.9-6.3c0-4.1,2.7-6.5,6.1-6.5C196,14.5,198.4,17,198.4,20.8
	z M188.7,20.9c0,2.7,1.5,4.7,3.7,4.7c2.1,0,3.7-2,3.7-4.8c0-2.1-1-4.7-3.7-4.7C189.8,16.1,188.7,18.6,188.7,20.9z"/>
<path class="st0" d="M201.2,18.7c0-1.6-0.1-2.8-0.1-4h2l0.1,2.1h0.1c0.9-1.5,2.4-2.4,4.3-2.4c3,0,5.2,2.5,5.2,6.2
	c0,4.4-2.7,6.6-5.6,6.6c-1.6,0-3-0.7-3.8-1.9h-0.1V32h-2.2V18.7z M203.4,22c0,0.3,0.1,0.6,0.1,0.9c0.4,1.5,1.7,2.6,3.3,2.6
	c2.4,0,3.7-1.9,3.7-4.7c0-2.5-1.3-4.5-3.6-4.5c-1.5,0-2.9,1.1-3.4,2.8c-0.1,0.3-0.2,0.6-0.2,0.9L203.4,22L203.4,22z"/>
<g>
	<path class="st0" d="M58.8,39.2v58.3H45.6V50H24.9v47.5H11.7V39.2H58.8z"/>
	<path class="st0" d="M104.9,72.8H83.4v13.8h23.9v10.8H70.2V39.2h36V50H83.4v12.1h21.4V72.8z"/>
	<path class="st0" d="M116.4,40c4.1-0.7,9.8-1.2,17.8-1.2c8.1,0,13.9,1.6,17.8,4.7c3.7,2.9,6.2,7.8,6.2,13.5s-1.9,10.5-5.4,13.8
		c-4.5,4.2-11.2,6.1-18.9,6.1c-1.7,0-3.3-0.1-4.5-0.3v20.8h-13.1L116.4,40L116.4,40z M129.5,66.4c1.1,0.3,2.5,0.3,4.4,0.3
		c7,0,11.3-3.5,11.3-9.5c0-5.4-3.7-8.6-10.3-8.6c-2.7,0-4.5,0.3-5.4,0.5L129.5,66.4L129.5,66.4z"/>
	<path class="st0" d="M178.8,39.2v17.3c0,9.3-0.2,18.6-0.7,26.4h0.3c3-6.8,6.9-14.5,10.4-20.7l12.5-22.9h13.5v58.3h-12.1V80.3
		c0-9,0.2-16.9,0.9-24.6h-0.3c-2.7,6.9-6.4,14.6-9.9,20.7l-11.8,21h-15V39.2H178.8z"/>
</g>
<g>
	<path class="st0" d="M15.2,113.6v8.8c0,3.3,0,5.4-0.2,8.4l0.1,0c1.3-2.5,2-4,3.4-6.4l6.5-10.8h4.4v20.9h-3.6v-8.8
		c0-3.4,0.1-5.2,0.3-8.5H26c-1.3,2.7-2.2,4.4-3.5,6.5c-2,3.2-4.3,7.2-6.5,10.9h-4.4v-20.9H15.2z"/>
	<path class="st0" d="M39.3,113.6v8.4h9.9v-8.4H53v20.9h-3.8v-9.4h-9.9v9.4h-3.8v-20.9H39.3z"/>
	<path class="st0" d="M62.9,113.6v8.4h9.9v-8.4h3.8v20.9h-3.8v-9.4h-9.9v9.4h-3.8v-20.9H62.9z"/>
	<path class="st0" d="M101.7,123.9c0,7.7-5.3,11.1-10.4,11.1c-5.7,0-10-4.1-10-10.7c0-7,4.6-11.1,10.4-11.1
		C97.7,113.2,101.7,117.5,101.7,123.9z M85.1,124.1c0,4.6,2.6,8,6.3,8c3.6,0,6.3-3.4,6.3-8.1c0-3.5-1.8-8-6.3-8
		C87.1,116,85.1,120.1,85.1,124.1z"/>
	<path class="st0" d="M106.4,113.9c1.5-0.3,4.2-0.5,6.6-0.5c3.5,0,9.3,0.6,9.3,5.2c0,2.6-2,4.2-4.4,4.7v0.1c3.1,0.4,5.3,2.2,5.3,5.2
		c0,5.5-6.9,6.2-11,6.2c-2.3,0-4.7-0.2-5.9-0.3L106.4,113.9L106.4,113.9z M110,132c1.1,0.1,1.9,0.2,3.1,0.2c2.5,0,6.3-0.6,6.3-3.6
		c0-3-3-3.7-6.6-3.7H110C110,124.9,110,132,110,132z M110,122.4h2.8c2.8,0,5.7-0.8,5.7-3.3c0-2.1-1.8-3.1-5.6-3.1
		c-1.3,0-2,0.1-2.9,0.2V122.4z"/>
	<path class="st0" d="M139.7,134.5l-0.3-2.6h-0.1c-1.2,1.6-3.4,3.1-6.4,3.1c-4.2,0-6.4-3-6.4-6c0-5,4.5-7.8,12.6-7.8v-0.4
		c0-1.7-0.5-4.8-4.7-4.8c-1.9,0-4,0.6-5.4,1.6L128,115c1.7-1.1,4.2-1.9,6.9-1.9c6.4,0,7.9,4.4,7.9,8.5v7.8c0,1.8,0.1,3.6,0.3,5
		L139.7,134.5L139.7,134.5z M139.1,123.9c-4.1-0.1-8.8,0.6-8.8,4.7c0,2.5,1.6,3.6,3.6,3.6c2.7,0,4.4-1.7,5-3.5
		c0.1-0.4,0.2-0.8,0.2-1.2V123.9z"/>
	<path class="st0" d="M152.6,113.6v17.9h9.6v-17.9h3.8v18l2.2,0l-0.2,9.5H165l-0.2-6.6h-16v-20.9L152.6,113.6L152.6,113.6z"/>
	<path class="st0" d="M176.1,113.6v8.8c0,3.3,0,5.4-0.2,8.4l0.1,0c1.3-2.5,2-4,3.4-6.4l6.5-10.8h4.4v20.9h-3.6v-8.8
		c0-3.4,0.1-5.2,0.3-8.5h-0.1c-1.3,2.7-2.2,4.4-3.5,6.5c-2,3.2-4.3,7.2-6.5,10.9h-4.4v-20.9H176.1z"/>
	<path class="st0" d="M200.1,113.6v8.8c0,3.3,0,5.4-0.2,8.4l0.1,0c1.3-2.5,2-4,3.4-6.4l6.5-10.8h4.4v20.9h-3.6v-8.8
		c0-3.4,0.1-5.2,0.3-8.5h-0.1c-1.3,2.7-2.2,4.4-3.5,6.5c-2,3.2-4.3,7.2-6.5,10.9h-4.4v-20.9H200.1z"/>
</g>
</svg>
