<svg id="Google_Play" data-name="Google Play" xmlns="http://www.w3.org/2000/svg" width="165" height="44" viewBox="0 0 165 44">
  <defs>
    <style>
      .cls-1 {
        fill: #fedb60;
      }

      .cls-2 {
        fill: #352f2f;
      }

      .cls-2, .cls-3 {
        fill-rule: evenodd;
      }

      .cls-3 {
        fill: #938247;
      }
    </style>
  </defs>
  <rect id="Rounded_Rectangle_1437" data-name="Rounded Rectangle 1437" class="cls-1" width="165" height="44" rx="22" ry="22"/>
  <path class="cls-2" d="M1701.65,1492.28l-3.64-2.11-3,2.9,2.74,2.65,3.9-2.25a0.689,0.689,0,0,0,.35-0.6A0.662,0.662,0,0,0,1701.65,1492.28Zm-4.26-2.46-4.01-2.32-8.79-4.5,9.93,9.59ZM1684.74,1503l8.66-4.77,3.73-2.16-2.61-2.52Zm-0.73-19.61-0.01,19.37,10.03-9.69Z" transform="translate(-1667 -1471)"/>
  <path id="Скачайте_в" data-name="Скачайте в" class="cls-3" d="M1714.91,1487.09a5.564,5.564,0,0,0,.56-0.11,2.214,2.214,0,0,0,.41-0.13,0.869,0.869,0,0,0,.22-0.11l-0.22-.72a3.592,3.592,0,0,1-.59.22,3.193,3.193,0,0,1-1,.13,2.189,2.189,0,0,1-.92-0.18,1.72,1.72,0,0,1-.65-0.51,2.336,2.336,0,0,1-.39-0.79,3.532,3.532,0,0,1-.13-1.01,3.347,3.347,0,0,1,.15-1.04,2.382,2.382,0,0,1,.42-0.79,1.823,1.823,0,0,1,.68-0.49,2.112,2.112,0,0,1,.89-0.18,3.421,3.421,0,0,1,.46.04,3.83,3.83,0,0,1,.43.11c0.13,0.04.24,0.08,0.34,0.12s0.18,0.09.24,0.12l0.25-.72c-0.04-.02-0.1-0.06-0.2-0.11s-0.22-.09-0.37-0.14a4.307,4.307,0,0,0-.54-0.13,4.9,4.9,0,0,0-.7-0.05,2.945,2.945,0,0,0-1.15.22,2.634,2.634,0,0,0-.95.63,2.912,2.912,0,0,0-.64,1.02,3.749,3.749,0,0,0-.24,1.39,4.274,4.274,0,0,0,.21,1.39,2.87,2.87,0,0,0,.6,1.02,2.478,2.478,0,0,0,.93.63,3.286,3.286,0,0,0,1.2.21A5.177,5.177,0,0,0,1714.91,1487.09Zm4.53-3.15q0.285-.27.57-0.57c0.19-.19.37-0.38,0.55-0.56s0.33-.35.46-0.49h-0.97c-0.11.11-.24,0.26-0.4,0.43s-0.34.35-.53,0.54-0.37.37-.56,0.56-0.35.34-.49,0.48v-2.01h-0.84V1487h0.84v-2.21a4.483,4.483,0,0,1,.55.42,7.544,7.544,0,0,1,.59.55c0.19,0.2.38,0.4,0.55,0.61s0.33,0.43.47,0.63h0.99c-0.13-.21-0.28-0.44-0.46-0.68s-0.38-.48-0.58-0.71a8.048,8.048,0,0,0-.64-0.66,6.1,6.1,0,0,0-.6-0.5C1719.09,1484.3,1719.26,1484.13,1719.44,1483.94Zm3.6,2.28a0.665,0.665,0,0,1-.28-0.62,0.613,0.613,0,0,1,.11-0.4,1,1,0,0,1,.3-0.23,1.123,1.123,0,0,1,.38-0.11,2.906,2.906,0,0,1,.4-0.03,3.377,3.377,0,0,1,.49.03,1.033,1.033,0,0,1,.3.08v1.39a1.956,1.956,0,0,1-.39.05c-0.15.01-.33,0.02-0.52,0.02A1.515,1.515,0,0,1,1723.04,1486.22Zm-0.1-3.95a2.48,2.48,0,0,0-.54.14l0.09,0.69a3.1,3.1,0,0,1,.47-0.12,3.875,3.875,0,0,1,.72-0.06,1.166,1.166,0,0,1,.53.1,0.8,0.8,0,0,1,.32.25,0.846,0.846,0,0,1,.16.36,1.841,1.841,0,0,1,.05.41v0.23a1.05,1.05,0,0,1-.13-0.02,1.121,1.121,0,0,0-.21-0.04,2.024,2.024,0,0,0-.26-0.04,2.348,2.348,0,0,0-.26-0.01,3.163,3.163,0,0,0-.76.08,1.978,1.978,0,0,0-.63.25,1.138,1.138,0,0,0-.42.45,1.3,1.3,0,0,0-.16.67,1.6,1.6,0,0,0,.13.69,1.222,1.222,0,0,0,.38.46,1.711,1.711,0,0,0,.58.26,3.263,3.263,0,0,0,.73.08c0.18,0,.37-0.01.56-0.02s0.36-.04.53-0.05,0.3-.04.43-0.06,0.23-.04.3-0.05v-2.93a2.73,2.73,0,0,0-.09-0.72,1.419,1.419,0,0,0-.3-0.57,1.37,1.37,0,0,0-.55-0.37,2.684,2.684,0,0,0-.86-0.13A5.091,5.091,0,0,0,1722.94,1482.27Zm3.87,0.05v1.39a1.892,1.892,0,0,0,.14.77,1.1,1.1,0,0,0,.36.5,1.253,1.253,0,0,0,.54.27,2.654,2.654,0,0,0,.71.09c0.1,0,.21-0.01.32-0.02s0.21-.03.31-0.04,0.18-.03.26-0.05,0.14-.04.19-0.05V1487h0.84v-4.68h-0.84v2.21c-0.12.03-.26,0.06-0.41,0.09a4.448,4.448,0,0,1-.57.03,1.183,1.183,0,0,1-.74-0.21,0.89,0.89,0,0,1-.27-0.74v-1.38h-0.84Zm6.09,3.9a0.671,0.671,0,0,1-.29-0.62,0.616,0.616,0,0,1,.12-0.4,0.953,0.953,0,0,1,.29-0.23,1.254,1.254,0,0,1,.39-0.11,2.8,2.8,0,0,1,.4-0.03,3.475,3.475,0,0,1,.49.03,1.045,1.045,0,0,1,.29.08v1.39a1.848,1.848,0,0,1-.38.05c-0.15.01-.33,0.02-0.53,0.02A1.453,1.453,0,0,1,1732.9,1486.22Zm-0.11-3.95a2.861,2.861,0,0,0-.54.14l0.1,0.69a2.92,2.92,0,0,1,.46-0.12,3.912,3.912,0,0,1,.73-0.06,1.121,1.121,0,0,1,.52.1,0.68,0.68,0,0,1,.32.25,0.859,0.859,0,0,1,.17.36,1.84,1.84,0,0,1,.04.41v0.23c-0.02,0-.07-0.01-0.13-0.02a1.121,1.121,0,0,0-.21-0.04,1.866,1.866,0,0,0-.25-0.04,2.348,2.348,0,0,0-.26-0.01,3.109,3.109,0,0,0-.76.08,1.978,1.978,0,0,0-.63.25,1.239,1.239,0,0,0-.43.45,1.411,1.411,0,0,0-.16.67,1.6,1.6,0,0,0,.14.69,1.222,1.222,0,0,0,.38.46,1.659,1.659,0,0,0,.57.26,3.4,3.4,0,0,0,.73.08c0.19,0,.38-0.01.57-0.02s0.36-.04.52-0.05,0.31-.04.44-0.06,0.23-.04.3-0.05v-2.93a2.73,2.73,0,0,0-.09-0.72,1.323,1.323,0,0,0-.86-0.94,2.575,2.575,0,0,0-.85-0.13A5.222,5.222,0,0,0,1732.79,1482.27Zm7.38,0.05c-0.19.2-.39,0.45-0.6,0.72s-0.42.57-.64,0.88-0.42.61-.61,0.92-0.38.59-.53,0.85v-3.37h-0.81V1487h0.74c0.15-.25.32-0.53,0.52-0.85s0.4-.64.62-0.96,0.43-.65.64-0.95,0.42-.58.6-0.8V1487h0.81v-4.68h-0.74Zm-0.31-1.04a1.22,1.22,0,0,0,.43-0.8l-0.63-.18a0.967,0.967,0,0,1-.25.47,0.6,0.6,0,0,1-.46.18,0.61,0.61,0,0,1-.47-0.18,0.881,0.881,0,0,1-.24-0.47l-0.64.18a1.209,1.209,0,0,0,.42.8,1.451,1.451,0,0,0,.93.28A1.393,1.393,0,0,0,1739.86,1481.28Zm2.09,1.04v0.7h1.52V1487h0.84v-3.98h1.52v-0.7h-3.88Zm4.8,3.33a2.321,2.321,0,0,0,.43.77,2.019,2.019,0,0,0,.73.5,2.642,2.642,0,0,0,1.06.19,3.753,3.753,0,0,0,.87-0.09,2.9,2.9,0,0,0,.54-0.17l-0.12-.7a3.338,3.338,0,0,1-.46.14,3.039,3.039,0,0,1-.74.08,1.561,1.561,0,0,1-1.15-.38,1.657,1.657,0,0,1-.42-1.11h3.2a0.708,0.708,0,0,0,.01-0.15v-0.14a2.761,2.761,0,0,0-.5-1.8,1.819,1.819,0,0,0-1.45-.59,1.958,1.958,0,0,0-.79.16,1.86,1.86,0,0,0-.69.46,2.245,2.245,0,0,0-.48.76,3.037,3.037,0,0,0-.18,1.09A3.412,3.412,0,0,0,1746.75,1485.65Zm0.76-1.44a1.667,1.667,0,0,1,.11-0.48,1.136,1.136,0,0,1,.24-0.41,1.155,1.155,0,0,1,.88-0.41,0.974,0.974,0,0,1,.8.37,1.4,1.4,0,0,1,.29.93h-2.32Zm7.65,0.65h1a3.636,3.636,0,0,1,.48.03,1.417,1.417,0,0,1,.38.13,0.642,0.642,0,0,1,.25.24,0.62,0.62,0,0,1,.1.37,0.686,0.686,0,0,1-.1.38,0.814,0.814,0,0,1-.28.24,1.294,1.294,0,0,1-.42.13,3.9,3.9,0,0,1-.5.04c-0.08,0-.17-0.01-0.26-0.01s-0.18-.01-0.27-0.01-0.16-.01-0.22-0.01-0.12-.01-0.16-0.02v-1.51Zm0-.62v-1.33c0.1,0,.22-0.01.36-0.01s0.28-.01.42-0.01a3.168,3.168,0,0,1,.44.02,1.235,1.235,0,0,1,.4.09,0.634,0.634,0,0,1,.28.19,0.491,0.491,0,0,1,.11.35,0.712,0.712,0,0,1-.08.34,0.611,0.611,0,0,1-.24.21,1.108,1.108,0,0,1-.35.12,2.945,2.945,0,0,1-.44.03h-0.9Zm1.72,2.77a1.934,1.934,0,0,0,.69-0.23,1.323,1.323,0,0,0,.46-0.45,1.381,1.381,0,0,0,.17-0.71,1.129,1.129,0,0,0-.23-0.74,1.42,1.42,0,0,0-.62-0.4,1.15,1.15,0,0,0,.46-0.38,0.994,0.994,0,0,0,.17-0.58,1.093,1.093,0,0,0-.17-0.64,1.181,1.181,0,0,0-.43-0.4,1.972,1.972,0,0,0-.62-0.21,3.514,3.514,0,0,0-.72-0.07,9.708,9.708,0,0,0-.98.05,5.393,5.393,0,0,0-.71.12v4.55a5.681,5.681,0,0,0,.71.11,9.708,9.708,0,0,0,.98.05A4.462,4.462,0,0,0,1756.88,1487.01Z" transform="translate(-1667 -1471)"/>
  <path id="Google_Play-2" data-name="Google Play" class="cls-2" d="M1717.62,1494.65a5.808,5.808,0,0,1,1.03.42l0.63-1.75a3.5,3.5,0,0,0-.37-0.2,4.071,4.071,0,0,0-.66-0.24c-0.27-.08-0.58-0.15-0.95-0.22a7.756,7.756,0,0,0-1.24-.09,5.426,5.426,0,0,0-1.9.34,4.286,4.286,0,0,0-1.55.99,4.65,4.65,0,0,0-1.03,1.59,5.729,5.729,0,0,0-.38,2.15,6.161,6.161,0,0,0,.34,2.14,4.407,4.407,0,0,0,.98,1.59,4.153,4.153,0,0,0,1.52.98,5.633,5.633,0,0,0,1.98.33,11.651,11.651,0,0,0,2.14-.17,8.873,8.873,0,0,0,1.26-.33v-4.8h-2.19v3.37a2.73,2.73,0,0,1-.45.06c-0.17.01-.38,0.01-0.62,0.01a2.888,2.888,0,0,1-1.18-.23,2.265,2.265,0,0,1-.84-0.65,2.936,2.936,0,0,1-.5-1,4.4,4.4,0,0,1-.17-1.3,3.582,3.582,0,0,1,.68-2.32,2.655,2.655,0,0,1,2.2-.84A4.643,4.643,0,0,1,1717.62,1494.65Zm10.59,2.57a3.661,3.661,0,0,0-.74-1.22,3.5,3.5,0,0,0-1.14-.78,3.946,3.946,0,0,0-2.92,0,3.5,3.5,0,0,0-1.14.78,3.548,3.548,0,0,0-.76,1.22,4.48,4.48,0,0,0-.27,1.58,4.734,4.734,0,0,0,.26,1.59,3.776,3.776,0,0,0,.75,1.24,3.2,3.2,0,0,0,1.14.79,3.85,3.85,0,0,0,1.47.28,3.917,3.917,0,0,0,1.49-.28,3.326,3.326,0,0,0,1.15-.79,3.55,3.55,0,0,0,.72-1.24,4.734,4.734,0,0,0,.26-1.59A4.48,4.48,0,0,0,1728.21,1497.22Zm-2.25,3.12a1.251,1.251,0,0,1-1.1.56,1.275,1.275,0,0,1-1.1-.56,2.68,2.68,0,0,1-.39-1.54,2.612,2.612,0,0,1,.39-1.52,1.29,1.29,0,0,1,1.1-.55,1.266,1.266,0,0,1,1.1.55,2.612,2.612,0,0,1,.39,1.52A2.68,2.68,0,0,1,1725.96,1500.34Zm11.03-3.12a3.832,3.832,0,0,0-.74-1.22,3.443,3.443,0,0,0-1.15-.78,3.53,3.53,0,0,0-4.81,2,4.872,4.872,0,0,0-.01,3.17,3.931,3.931,0,0,0,.74,1.24,3.382,3.382,0,0,0,1.14.79,4.078,4.078,0,0,0,2.97,0,3.2,3.2,0,0,0,1.14-.79,3.571,3.571,0,0,0,.73-1.24,4.736,4.736,0,0,0,.25-1.59A4.479,4.479,0,0,0,1736.99,1497.22Zm-2.25,3.12a1.36,1.36,0,0,1-2.2,0,2.6,2.6,0,0,1-.4-1.54,2.539,2.539,0,0,1,.4-1.52,1.375,1.375,0,0,1,2.2,0,2.612,2.612,0,0,1,.39,1.52A2.68,2.68,0,0,1,1734.74,1500.34Zm6.59-3.15a1.439,1.439,0,0,1,1.23-.54,3.624,3.624,0,0,1,.49.02,2.843,2.843,0,0,1,.36.05v3.33a3.016,3.016,0,0,1-.47.2,2.349,2.349,0,0,1-.6.08c-0.95,0-1.42-.58-1.42-1.75A2.291,2.291,0,0,1,1741.33,1497.19Zm4.17-1.8c-0.19-.06-0.4-0.11-0.64-0.16s-0.49-.1-0.75-0.14l-0.79-.09c-0.26-.02-0.52-0.03-0.77-0.03a4.421,4.421,0,0,0-1.59.26,3.226,3.226,0,0,0-1.18.73,3.1,3.1,0,0,0-.73,1.14,4.144,4.144,0,0,0-.26,1.48,3.634,3.634,0,0,0,.82,2.53,2.978,2.978,0,0,0,2.33.9,3.814,3.814,0,0,0,.78-0.08,3.29,3.29,0,0,0,.69-0.23v0.27a1.415,1.415,0,0,1-.37,1.01,1.682,1.682,0,0,1-1.26.39,6.459,6.459,0,0,1-1.23-.11,6.833,6.833,0,0,1-1.03-.31l-0.36,1.75a8.641,8.641,0,0,0,1.24.31,7.7,7.7,0,0,0,1.35.12,3.979,3.979,0,0,0,2.83-.87,3.567,3.567,0,0,0,.92-2.68v-6.19Zm5.47,5.53a1.787,1.787,0,0,1-.6-0.13,0.817,0.817,0,0,1-.34-0.25,0.876,0.876,0,0,1-.16-0.38,2.6,2.6,0,0,1-.04-0.5v-8.02l-2.09.33v8.11a4.21,4.21,0,0,0,.12,1.05,1.674,1.674,0,0,0,.45.8,2.131,2.131,0,0,0,.89.51,4.938,4.938,0,0,0,1.48.2Zm1.35-.53a3.36,3.36,0,0,0,.72,1.21,3.283,3.283,0,0,0,1.22.8,4.537,4.537,0,0,0,1.73.3,6.807,6.807,0,0,0,.78-0.05,7.163,7.163,0,0,0,.73-0.1,4.865,4.865,0,0,0,.63-0.15,2.513,2.513,0,0,0,.45-0.17l-0.28-1.69a4.6,4.6,0,0,1-.91.26,5.982,5.982,0,0,1-1.12.1,2.425,2.425,0,0,1-1.43-.37,1.376,1.376,0,0,1-.6-1.03h4.73c0.01-.11.02-0.24,0.03-0.38s0.01-.28.01-0.4a3.937,3.937,0,0,0-.91-2.82,3.254,3.254,0,0,0-2.48-.96,3.5,3.5,0,0,0-1.31.25,3.366,3.366,0,0,0-1.12.74,3.851,3.851,0,0,0-.8,1.23,4.5,4.5,0,0,0-.3,1.71A4.941,4.941,0,0,0,1752.32,1500.39Zm1.92-2.31a2.415,2.415,0,0,1,.13-0.53,1.434,1.434,0,0,1,.26-0.45,1.234,1.234,0,0,1,.42-0.32,1.4,1.4,0,0,1,.6-0.12,1.252,1.252,0,0,1,.61.13,1.157,1.157,0,0,1,.4.32,1.221,1.221,0,0,1,.24.45,2.265,2.265,0,0,1,.09.52h-2.75Zm11.95-5.34a11.717,11.717,0,0,0-1.51.2v9.56h2.18v-3.25h0.69a6.049,6.049,0,0,0,3.36-.78,2.8,2.8,0,0,0,1.18-2.52,2.759,2.759,0,0,0-1.17-2.5,6.034,6.034,0,0,0-3.33-.76C1767.19,1492.69,1766.72,1492.7,1766.19,1492.74Zm2.41,1.87a1.97,1.97,0,0,1,.66.22,1.022,1.022,0,0,1,.42.43,1.355,1.355,0,0,1,.15.67,1.184,1.184,0,0,1-.57,1.15,3.672,3.672,0,0,1-1.71.31h-0.69v-2.8c0.12-.01.25-0.02,0.4-0.03s0.31-.01.47-0.01A5.751,5.751,0,0,1,1768.6,1494.61Zm8.47,6.31a1.787,1.787,0,0,1-.6-0.13,0.853,0.853,0,0,1-.35-0.25,1.015,1.015,0,0,1-.16-0.38,3.753,3.753,0,0,1-.04-0.5v-8.02l-2.08.33v8.11a4.768,4.768,0,0,0,.11,1.05,1.674,1.674,0,0,0,.45.8,2.173,2.173,0,0,0,.9.51,4.938,4.938,0,0,0,1.48.2Zm3.59-.07a0.7,0.7,0,0,1-.33-0.67,0.77,0.77,0,0,1,.11-0.42,0.812,0.812,0,0,1,.31-0.27,1.242,1.242,0,0,1,.46-0.13,3.16,3.16,0,0,1,.55-0.04,3.927,3.927,0,0,1,.46.03,3.412,3.412,0,0,1,.38.06v1.58a3.927,3.927,0,0,1-.45.04c-0.19.01-.38,0.01-0.59,0.01A1.771,1.771,0,0,1,1780.66,1500.85Zm0.01-5.88c-0.23.03-.46,0.06-0.67,0.09s-0.42.07-.6,0.11a4.639,4.639,0,0,0-.45.12l0.26,1.68a4.56,4.56,0,0,1,.9-0.22,7.215,7.215,0,0,1,1.05-.07,1.547,1.547,0,0,1,1.12.32,1.162,1.162,0,0,1,.32.85v0.2a2.636,2.636,0,0,0-.51-0.09,5.2,5.2,0,0,0-.72-0.04,5.5,5.5,0,0,0-1.16.12,3.071,3.071,0,0,0-1,.39,1.883,1.883,0,0,0-.69.71,2.17,2.17,0,0,0-.26,1.09,2.605,2.605,0,0,0,.22,1.14,1.931,1.931,0,0,0,.65.74,2.745,2.745,0,0,0,1,.42,6.431,6.431,0,0,0,1.29.12,12,12,0,0,0,1.94-.13c0.53-.09.94-0.16,1.24-0.23v-4.34a4.868,4.868,0,0,0-.15-1.25,2.275,2.275,0,0,0-.53-0.95,2.4,2.4,0,0,0-.98-0.6,4.9,4.9,0,0,0-1.54-.21C1781.15,1494.94,1780.91,1494.95,1780.67,1494.97Zm10.3,0.17c-0.09.36-.2,0.75-0.31,1.18s-0.24.85-.37,1.29-0.25.85-.38,1.26-0.26.79-.38,1.12c-0.13-.33-0.27-0.71-0.41-1.12s-0.29-.83-0.43-1.26-0.27-.87-0.4-1.29-0.24-.82-0.33-1.18h-2.21a41.184,41.184,0,0,0,1.34,3.91c0.48,1.16.96,2.21,1.43,3.14a2.5,2.5,0,0,1-.51.84,1.169,1.169,0,0,1-.86.3,2.98,2.98,0,0,1-.53-0.05,3.321,3.321,0,0,1-.58-0.15l-0.36,1.67a4.393,4.393,0,0,0,.68.2,4.157,4.157,0,0,0,.9.09,3.534,3.534,0,0,0,1.03-.13,2.313,2.313,0,0,0,.79-0.42,3.593,3.593,0,0,0,.65-0.73,8.609,8.609,0,0,0,.58-1.07c0.54-1.17,1.04-2.37,1.5-3.61s0.9-2.58,1.32-3.99h-2.16Z" transform="translate(-1667 -1471)"/>
</svg>
